<?xml version="1.0" encoding="utf-8"?>
<!-- Generator: Adobe Illustrator 24.3.0, SVG Export Plug-In . SVG Version: 6.00 Build 0)  -->
<svg version="1.1" id="Capa_1" xmlns="http://www.w3.org/2000/svg" xmlns:xlink="http://www.w3.org/1999/xlink" x="0px" y="0px"
	 viewBox="0 0 512 512" style="enable-background:new 0 0 512 512;" xml:space="preserve">
<style type="text/css">
	.st0{fill:#98B9D3;}
	.st1{fill:#81A7C6;}
	.st2{fill:#F6F4E6;}
	.st3{fill:#E4DEB4;}
	.st4{fill:#4A80AA;}
	.st5{fill:#407093;}
	.st6{fill:#BED8FB;}
	.st7{fill:#9DC6FB;}
	.st8{fill:#95D6A4;}
	.st9{fill:#78C2A4;}
</style>
<g>
	<g>
		<g>
			<g>
				<g>
					<g>
						<g>
							<path class="st0" d="M296.7,400.1v-3.7h-81.3v3.7c0,26.5-10.3,52-28.7,71l-12.9,13.3H256h82.3l-12.9-13.3
								C307,452.1,296.7,426.6,296.7,400.1z"/>
							<path class="st1" d="M325.4,471.1c-18.4-19-28.7-44.5-28.7-71v-3.7h-65.7v3.7c0,26.5,10.3,52,28.7,71l12.9,13.3h65.7
								L325.4,471.1z"/>
							<g>
								<path class="st2" d="M476.9,411.7H35.1c-15.2,0-27.5-12.3-27.5-27.5V92.1c0-15.2,12.3-27.5,27.5-27.5h369.8
									c23,0,45.4,7.4,63.8,21.1l35.8,26.5v272C504.5,399.4,492.1,411.7,476.9,411.7z"/>
								<path class="st3" d="M468.7,85.6c-18.5-13.7-40.9-21.1-63.8-21.1c18.9,0,34.3,15.3,34.3,34.3v285.3
									c0,15.2-12.3,27.5-27.5,27.5h65.3c15.2,0,27.5-12.3,27.5-27.5v-272L468.7,85.6z"/>
								<path class="st4" d="M7.5,384.2c0,15.2,12.3,27.5,27.5,27.5h441.9c15.2,0,27.5-12.3,27.5-27.5v-27.3H7.5L7.5,384.2z"/>
								<path class="st5" d="M504.5,384.2v-27.3h-65.3v27.3c0,15.2-12.3,27.5-27.5,27.5h65.3C492.1,411.7,504.5,399.4,504.5,384.2z"
									/>
								<path class="st4" d="M353,504.5H159c-11.1,0-20.1-9-20.1-20.1s9-20.1,20.1-20.1H353c11.1,0,20.1,9,20.1,20.1
									C373.1,495.5,364.1,504.5,353,504.5z"/>
								<path class="st5" d="M353,464.4h-65.3c11.1,0,20.1,9,20.1,20.1v20.1H353c11.1,0,20.1-9,20.1-20.1
									C373.1,473.3,364.1,464.4,353,464.4z"/>
							</g>
						</g>
					</g>
				</g>
			</g>
			<g>
				<g>
					<path class="st6" d="M213.5,266.3v-75.6c0-4.1-2.2-7.9-5.7-10L142.3,143c-3.6-2.1-7.9-2.1-11.5,0l-65.5,37.8
						c-3.6,2.1-5.7,5.8-5.7,10v75.6c0,4.1,2.2,7.9,5.7,10l65.5,37.8c3.6,2.1,7.9,2.1,11.5,0l65.5-37.8
						C211.3,274.2,213.5,270.4,213.5,266.3z"/>
					<path class="st7" d="M136.5,228.5L212,185c-1-1.7-2.4-3.2-4.2-4.2L142.3,143c-3.6-2.1-7.9-2.1-11.5,0l-65.5,37.8
						c-1.8,1-3.2,2.5-4.2,4.2L136.5,228.5z"/>
				</g>
			</g>
		</g>
		<g>
			<path class="st8" d="M493.9,83.4c-6.2-7-14.1-11.4-22.5-13.2c-4.9-1.1-8.8-4.7-10.1-9.5C452.6,30,424.5,7.5,391,7.5
				c-24.6,0-46.4,12.2-59.6,30.9c-2.1,2.9-5.2,4.9-8.7,5.5c-25.8,4.8-45.4,27.6-45,54.9c0.3,30.4,25.7,54.6,56.1,54.6h128
				c7.4,0,14.8-1.7,21.3-5.3c3.4-1.9,6.9-4.4,10-7.8C507.6,124.2,508.4,99.6,493.9,83.4L493.9,83.4z"/>
			<path class="st9" d="M401,153.3v0.2h60.7c7.4,0,14.8-1.7,21.3-5.3c3.4-1.9,6.9-4.4,10-7.8c14.6-16,15.3-40.7,0.9-56.9
				c-6.2-7-14.1-11.4-22.5-13.2c-4.9-1.1-8.8-4.7-10.1-9.5C452.6,30,424.5,7.5,391,7.5c-11.8,0-23,2.8-32.8,7.8
				c18,9.1,31.7,25.4,37.4,45.1c1.4,4.8,5.2,8.6,10.1,9.7c8.4,1.8,16.4,6.2,22.6,13.2c14.4,16.2,14,41.2-0.9,56.9
				C420.1,147.9,410.7,152.3,401,153.3L401,153.3z"/>
		</g>
	</g>
	<g>
		<path d="M452.4,195.7H278.9c-4.1,0-7.5,3.4-7.5,7.5s3.4,7.5,7.5,7.5h173.5c4.1,0,7.5-3.4,7.5-7.5S456.6,195.7,452.4,195.7z"/>
		<path d="M452.4,240H278.9c-4.1,0-7.5,3.4-7.5,7.5s3.4,7.5,7.5,7.5h173.5c4.1,0,7.5-3.4,7.5-7.5S456.6,240,452.4,240z"/>
		<path d="M452.4,284.3H278.9c-4.1,0-7.5,3.4-7.5,7.5s3.4,7.5,7.5,7.5h173.5c4.1,0,7.5-3.4,7.5-7.5S456.6,284.3,452.4,284.3z"/>
		<path d="M367.8,83.6l15.7-12.7v45c0,4.1,3.4,7.5,7.5,7.5s7.5-3.4,7.5-7.5v-45l15.7,12.7c3.2,2.6,7.9,2.1,10.5-1.1
			s2.1-7.9-1.1-10.5c-16-13-11.7-9.5-27.9-22.6c0,0,0,0,0,0c-2.6-2.1-6.2-2.2-9-0.3c-0.6,0.4-0.1,0.1-28.4,22.9
			c-3.2,2.6-3.7,7.3-1.1,10.5C359.9,85.7,364.6,86.2,367.8,83.6z"/>
		<path d="M504.5,158.1c-4.1,0-7.5,3.4-7.5,7.5v183.7H15V92.1c0-11.1,9-20,20-20h218.7c4.1,0,7.5-3.4,7.5-7.5s-3.4-7.5-7.5-7.5H35.1
			c-19.3,0-35,15.7-35,35v292.1c0,19.3,15.7,35,35,35h170.8c-2.8,13.6-8.6,26.5-17,37.6h-30c-15.2,0-27.6,12.4-27.6,27.6
			S143.8,512,159,512H353c15.2,0,27.6-12.4,27.6-27.6s-12.4-27.6-27.6-27.6h-30c-8.4-11.2-14.2-24-17-37.6h170.8
			c19.3,0,35-15.7,35-35V165.6C512,161.5,508.6,158.1,504.5,158.1L504.5,158.1z M365.6,484.4c0,6.9-5.6,12.6-12.6,12.6H159
			c-6.9,0-12.6-5.6-12.6-12.6s5.6-12.6,12.6-12.6H353C360,471.9,365.6,477.5,365.6,484.4z M305,456.9h-98
			c7-11.5,11.8-24.3,14.2-37.6h69.7C293.2,432.6,298,445.3,305,456.9z M476.9,404.2c-6.9,0-440.1,0-441.9,0c-11.1,0-20-9-20-20
			v-19.8h482v19.8C497,395.2,488,404.2,476.9,404.2z"/>
		<path d="M211.5,174.3L146,136.5c-5.9-3.4-13.1-3.4-19,0l-65.5,37.8c-5.9,3.4-9.5,9.7-9.5,16.4v75.6c0,6.8,3.6,13.1,9.5,16.4
			l65.5,37.8c5.9,3.4,13.1,3.4,19,0l65.5-37.8c5.9-3.4,9.5-9.7,9.5-16.4v-75.6C221,184,217.4,177.7,211.5,174.3L211.5,174.3z
			 M69.1,269.8c-1.2-0.7-2-2-2-3.5v-69.3l62,35.8v71.6L69.1,269.8z M204,269.8l-60,34.6v-71.6l17.8-10.3c3.6-2.1,4.8-6.7,2.7-10.2
			c-2.1-3.6-6.7-4.8-10.2-2.7l-17.8,10.3l-62-35.8l60-34.6c1.2-0.7,2.8-0.7,4,0l60,34.6l-13.8,8c-3.6,2.1-4.8,6.7-2.7,10.2
			c2.1,3.6,6.7,4.8,10.2,2.7l13.8-8v69.3C206,267.8,205.2,269.1,204,269.8L204,269.8z"/>
		<path d="M333.8,161h128c14.6,0,27.9-5.8,36.8-15.6c17.5-19.2,17.9-48,1-67c-7-7.9-16.2-13.3-26.5-15.6c-2.2-0.5-3.9-2.1-4.5-4.2
			C458.8,24.1,426.9,0,391,0c-26.1,0-50.7,12.7-65.8,34.1c-0.9,1.3-2.3,2.2-4,2.5c-30,5.6-51.5,31.8-51.2,62.4
			C270.5,133.2,299.1,161,333.8,161z M324,51.3c5.5-1,10.3-4.1,13.5-8.6C349.8,25.4,369.8,15,391,15c29.2,0,55.1,19.6,63,47.7
			c2.1,7.5,8.1,13.2,15.7,14.8c7.2,1.6,13.6,5.3,18.5,10.9v0c11.8,13.3,11.4,33.4-0.9,46.9c-6,6.6-15.1,10.7-25.7,10.7h-128
			c-26.5,0-48.3-21.2-48.6-47.2C284.9,75.5,301.2,55.6,324,51.3z"/>
	</g>
</g>
</svg>
