<?xml version="1.0" encoding="utf-8"?>
<!-- Generator: Adobe Illustrator 24.3.0, SVG Export Plug-In . SVG Version: 6.00 Build 0)  -->
<svg version="1.1" id="bold" xmlns="http://www.w3.org/2000/svg" xmlns:xlink="http://www.w3.org/1999/xlink" x="0px" y="0px"
	 viewBox="0 0 512 512" style="enable-background:new 0 0 512 512;" xml:space="preserve">
<style type="text/css">
	.st0{fill:#63564E;}
</style>
<path class="st0" d="M304,0H58.7C26.2,0,0,26.2,0,58.7v330.7C0,421.8,26.2,448,58.7,448h140.6c-11.5-24.3-17.9-51.4-17.9-80
	c0-24.5,4.7-48,13.4-69.5c-0.9,0.2-1.7,0.2-2.8,0.2H85.3c-11.7,0-21.3-9.6-21.3-21.3S73.6,256,85.3,256H192
	c8.1,0,15.4,4.7,18.8,11.5c13.9-21.5,31.8-39.9,52.9-54.2H85.3c-11.7,0-21.3-9.6-21.3-21.3s9.6-21.3,21.3-21.3h192
	c11.7,0,21.3,9.6,21.3,21.3c0,1.1,0,1.9-0.2,2.8c19.8-8.1,41.6-12.8,64.2-13.2V58.7C362.7,26.2,336.4,0,304,0z M170.7,128H85.3
	c-11.7,0-21.3-9.6-21.3-21.3s9.6-21.3,21.3-21.3h85.3c11.7,0,21.3,9.6,21.3,21.3S182.4,128,170.7,128z"/>
<path class="st0" d="M368,224c-79.4,0-144,64.6-144,144s64.6,144,144,144s144-64.6,144-144S447.4,224,368,224z M426.7,389.3h-37.3
	v37.3c0,11.8-9.6,21.3-21.3,21.3s-21.3-9.6-21.3-21.3v-37.3h-37.3c-11.8,0-21.3-9.6-21.3-21.3s9.6-21.3,21.3-21.3h37.3v-37.3
	c0-11.8,9.6-21.3,21.3-21.3s21.3,9.6,21.3,21.3v37.3h37.3c11.8,0,21.3,9.6,21.3,21.3S438.4,389.3,426.7,389.3z"/>
</svg>
