<?xml version="1.0" encoding="utf-8"?>
<!-- Generator: Adobe Illustrator 24.3.0, SVG Export Plug-In . SVG Version: 6.00 Build 0)  -->
<svg version="1.1" id="Capa_1" xmlns="http://www.w3.org/2000/svg" xmlns:xlink="http://www.w3.org/1999/xlink" x="0px" y="0px"
	 viewBox="0 0 477.9 477.9" style="enable-background:new 0 0 477.9 477.9;" xml:space="preserve">
<style type="text/css">
	.st0{fill:#63564E;}
</style>
<g>
	<g>
		<path class="st0" d="M392.5,0H85.3C38.2,0.1,0.1,38.2,0,85.3v307.2c0.1,47.1,38.2,85.3,85.3,85.3h307.2
			c47.1-0.1,85.3-38.2,85.3-85.3V85.3C477.8,38.2,439.6,0.1,392.5,0z M443.7,392.5c0,28.3-22.9,51.2-51.2,51.2H85.3
			c-28.3,0-51.2-22.9-51.2-51.2V85.3c0-28.3,22.9-51.2,51.2-51.2h307.2c28.3,0,51.2,22.9,51.2,51.2V392.5z"/>
	</g>
</g>
<g>
	<g>
		<path class="st0" d="M324.3,221.9H256v-68.3c0-9.4-7.6-17.1-17.1-17.1s-17.1,7.6-17.1,17.1v68.3h-68.3c-9.4,0-17.1,7.6-17.1,17.1
			s7.6,17.1,17.1,17.1h68.3v68.3c0,9.4,7.6,17.1,17.1,17.1s17.1-7.6,17.1-17.1V256h68.3c9.4,0,17.1-7.6,17.1-17.1
			S333.7,221.9,324.3,221.9z"/>
	</g>
</g>
</svg>
