<?xml version="1.0" encoding="utf-8"?>
<!-- Generator: Adobe Illustrator 24.3.0, SVG Export Plug-In . SVG Version: 6.00 Build 0)  -->
<svg version="1.1" id="Layer_1" xmlns="http://www.w3.org/2000/svg" xmlns:xlink="http://www.w3.org/1999/xlink" x="0px" y="0px"
	 viewBox="0 0 24 24" style="enable-background:new 0 0 24 24;" xml:space="preserve">
<style type="text/css">
	.st0{fill:none;}
	.st1{fill:#63564E;}
</style>
<path class="st0" d="M0,0h24v24H0V0z"/>
<g>
	<path class="st1" d="M19.5,3.5L18,2l-1.5,1.5L15,2l-1.5,1.5L12,2l-1.5,1.5L9,2L7.5,3.5L6,2v14H3v3c0,1.7,1.3,3,3,3h12
		c1.7,0,3-1.3,3-3V2L19.5,3.5z M15,20H6c-0.6,0-1-0.5-1-1v-1h10V20z M19,19c0,0.5-0.5,1-1,1s-1-0.5-1-1v-3H8V5h11V19z"/>
	<rect x="9" y="7" class="st1" width="6" height="2"/>
	<rect x="16" y="7" class="st1" width="2" height="2"/>
	<rect x="9" y="10" class="st1" width="6" height="2"/>
	<rect x="16" y="10" class="st1" width="2" height="2"/>
</g>
</svg>
