<?xml version="1.0" encoding="utf-8"?>
<!-- Generator: Adobe Illustrator 24.3.0, SVG Export Plug-In . SVG Version: 6.00 Build 0)  -->
<svg version="1.1" id="Layer_1" xmlns="http://www.w3.org/2000/svg" xmlns:xlink="http://www.w3.org/1999/xlink" x="0px" y="0px"
	 viewBox="0 0 24 24" style="enable-background:new 0 0 24 24;" xml:space="preserve">
<style type="text/css">
	.st0{fill:none;}
	.st1{fill:#63564E;}
</style>
<g>
	<rect y="0" class="st0" width="24" height="24"/>
</g>
<g>
	<g>
		<path class="st1" d="M5,5h2v3h10V5h2v5h2V5c0-1.1-0.9-2-2-2h-4.2c-0.4-1.2-1.5-2-2.8-2S9.6,1.8,9.2,3H5C3.9,3,3,3.9,3,5v14
			c0,1.1,0.9,2,2,2h6v-2H5V5z M12,3c0.6,0,1,0.5,1,1s-0.4,1-1,1s-1-0.4-1-1S11.4,3,12,3z"/>
		<polygon class="st1" points="21,11.5 15.5,17 12.5,14 11,15.5 15.5,20 22.5,13 		"/>
	</g>
</g>
</svg>
