<?xml version="1.0" encoding="utf-8"?>
<!-- Generator: Adobe Illustrator 24.3.0, SVG Export Plug-In . SVG Version: 6.00 Build 0)  -->
<svg version="1.1" id="Layer_1" xmlns="http://www.w3.org/2000/svg" xmlns:xlink="http://www.w3.org/1999/xlink" x="0px" y="0px"
	 viewBox="0 0 1487.2 701.1" style="enable-background:new 0 0 1487.2 701.1;" xml:space="preserve">
<style type="text/css">
	.st0{fill:#291206;}
</style>
<path class="st0" d="M222.8,156.5c-11.6,8.8-22.7,16.4-32.9,25.2c-42.9,37.1-72,83-80.6,139.4c-14.8,97.4,22.4,173.8,100.1,231.2
	c44.4,32.8,95.4,49.3,150.5,51.8c29.4,1.3,59,0.8,88.4,0.4c43.5-0.7,85.3-11.3,126.8-23.3c42.3-12.2,82.9-29.7,120.9-52
	c18.5-10.9,36-23.5,54.5-34.4c43-25.2,88.7-44.4,136.4-58.8c72.2-21.9,146-33.9,221.7-31.4c99.2,3.3,190.8,31.3,273.5,86.9
	c39.3,26.3,73.9,58.9,102.5,96.6c1.5,1.6,2.4,3.7,2.8,5.8c-5.6-4.8-11.1-9.8-17-14.3c-8.6-6.7-17.6-13-26.3-19.6
	c-21.8-16.5-46.7-26.8-72.1-36c-31.6-11.4-64.2-18.9-97.4-23.7c-53-7.8-106.8-8.7-160-2.8c-55.1,6.1-108.6,18.9-158.7,43.6
	c-29.2,14.4-56,32.3-76.7,58.1c-16.6,20.7-26.6,43.9-24.5,71c0.8,10.3,3.8,20.5,5.8,31H113.1c1.2-8.6,2.6-17.1,3.4-25.6
	c5.7-54.8-35.2-121.6-110.8-115.2l-5.6,0.5v-5.7c0-131,0-262-0.1-393c0-4.7,1-6.2,6-6.2c70.8,0.3,141.6,0.4,212.5,0.5L222.8,156.5z
	 M64.8,208.1c-0.1-9.7-8.1-17.4-17.8-17.3c-9.1,0.1-16.6,7.2-17.2,16.4c0,0.5,0,1,0,1.6c0.6,9.7,8.9,17,18.6,16.4
	C57.4,224.6,64.5,217.2,64.8,208.1z M207.8,644c-5-11.5-18.6-16.4-33.6-12.1c-12.6,3.6-18.8,13.5-16.9,26.7
	c2,13.7,12.1,20.8,29,20.6c11.8-0.2,21.3-6.8,22.3-15.9l-7.2-1.3c-2.1,6.4-6.2,10-12.2,11.2c-16.3,3.5-28.1-9.7-23-25.9
	c2-6.5,6.7-9.9,13.1-10.8c6.7-1,13.9-1.4,18.2,5C200.5,646,203.4,646,207.8,644L207.8,644z M355.8,663.4
	c-0.3-12.3-6.6-18.7-18.4-19.3s-20,5.5-21.1,15.2c-1.1,10.2,4.6,18,14.6,19.9c12,2.3,21.8-1.8,24-10.3c-3.6-1-6.5-1.3-9.4,2.5
	c-3.4,4.5-8.8,4.3-13.8,2.5c-4.6-1.6-7.2-5-7.4-10.5L355.8,663.4z M736,664.7c1-10.7-5.2-18-15.7-19.3c-11.9-1.5-21.5,4.3-23.1,13.9
	c-1.7,10.8,3.7,18.7,14.1,21.1c9.1,2.1,23-0.7,24.2-10.2c-5.5-1.4-5.5-1.4-9.2,2.5c-3.2,3.3-9.4,4.4-14.4,2.3
	c-4.2-1.8-6.9-4.9-6.7-10.3L736,664.7z M235.9,679.4c1,0,2,0,3-0.2c10.3-1.1,16.2-7.1,16.4-16.7c0.2-10.3-5.4-17.3-15.7-18.4
	c-4.6-0.5-9.3-0.1-13.7,1.2c-6.9,2-10.4,7.3-10.7,14.7C214.8,672.2,222.2,679.4,235.9,679.4L235.9,679.4z M525.5,680.3
	c1.1,0,2.1-0.1,3.2-0.2c8.6-1.2,14.5-6.5,15.6-13.9c1.3-9.2-2.1-16.3-10.1-19.7c-7.6-3.2-15.5-3.2-22.5,1.4c-2.8,2-5,4.7-6.3,7.9
	C500.2,669.2,509.4,680.4,525.5,680.3L525.5,680.3z M477.3,679.2c0.1-1.4,0.1-2.8,0-4.3c-1.7-10.8,1.4-19.6,9.7-27
	c4.8-4.3,8.6-9.8,13-15.1c-5.8-1.5-9.5-0.6-12.7,4c-4,5.9-8.9,11.1-13.6,16.9c-4.7-5.8-9.7-11.2-13.9-17.1c-3.4-4.7-7.4-5.3-12.9-4
	c1.2,1.5,2.1,2.8,3.1,4c5.5,6.5,11.1,12.8,16.4,19.5c1.6,2.2,2.6,4.8,2.8,7.5c0.4,5.1,0.1,10.2,0.1,15.5L477.3,679.2z M587,681
	v-35.1h-7c0,6.4,0.1,12.3,0,18.3c-0.2,7.6-3.9,11.2-11,11.1c-6.5,0-8.8-2.8-9-10.8c-0.1-6.2,0-12.5,0-18.7h-7.2
	c0,8.5-0.1,16.6,0.1,24.7c0.1,4.3,2.8,7.1,6.7,8.5c7.2,2.6,14,2,19.3-2L587,681z M810.7,680.2V639h18.7v-5.4h-46.6
	c0.2,2,0.4,3.5,0.6,5.7h19.4v40.9L810.7,680.2z M692,633.3h-46.8c0.1,1.8,0.2,3.2,0.4,5.3H665v41.3h8.1v-41.3H692V633.3z
	 M780.3,679.7L765,662.3l13.9-15.4c-10.7-3.9-12.6,6.9-18.7,10.2c-5.4-4.4-7.7-14.2-18-10.2l13.8,15.7l-15,17.2
	c5.3,1,9.3,1,12.2-3.8c1.9-3.2,4.7-5.8,7-8.5C767.1,671.8,768.5,683.2,780.3,679.7L780.3,679.7z M399.3,667.8
	c-3.8-1.6-6.7-1.7-8.5,3c-0.6,1.5-2.8,2.8-4.6,3.4c-4.5,1.6-9,1.1-12.5-2.4c-4.4-4.4-4.1-10-2.7-15.4c1-4.2,4.2-6.3,8.2-7
	s8.5-0.6,10.9,3.2c2.5,4.1,5.2,3.5,8.5,2.1c-0.9-7.9-11-12-21.7-10.2c-9.6,1.6-15,8.6-14.5,18.4c0.6,10,7.5,16.4,18.5,17
	C390.5,680.5,398,675.6,399.3,667.8L399.3,667.8z M406.1,650.8l1.2-0.2c0,6.8-0.1,13.6,0,20.4c0.1,5.8,2.4,8.1,8.2,8.5
	c2.4,0.2,4.8,0,7.7,0l-1.2-5.1l-1,1c-2-1.6-5.7-3-5.9-4.8c-0.7-6.7-0.3-13.5-0.3-19.5l7-3.8l-7.5-3.7v-9.8c-7.2,0.6-8,5.2-7.5,9.2
	l-4.9,4.5L406.1,650.8z M598.7,644.8V674c0,6.5,0.7,7,7.2,5.2c0.1-0.1,0.1-0.3,0.2-0.4c0-5.2-0.1-10.3,0-15.5
	c0-10.6,2.8-13,13.6-11.6c0.7-1.5,1.4-3.1,2.1-4.7c-6.7-3.1-9.3-2.8-14.4,0.7L598.7,644.8z M272.3,646.7l-8.6-2.8v34.5h7.1
	c0.2-0.5,0.5-0.8,0.5-1.1v-15.5c0-10.1,2.9-12.5,12.7-11.2c0.4-0.1,0.8-0.2,1.2-0.4c0.5-1.3,1.1-2.8,1.8-4.5
	C280.8,642.8,275.7,643,272.3,646.7L272.3,646.7z M298.6,678.4v-15.6c0-11,2.7-13.5,13.7-12.1l2-4.8c-6.1-2.9-11.3-2.8-16.3,2.8
	c-0.3-6-3.7-3.9-6.5-3.8v33.6L298.6,678.4z"/>
<path class="st0" d="M405.4,243.8c-18.7,12-28.7,35.3-21,57.5c-26.9,8.2-40.1,26.1-38.8,54.5c-7.7-28.3-5-55.9,5.9-83.3
	c-9.9,2.9-23.3,27.8-28.3,51.2c-4.2,19.8-0.2,39.4,3.3,59.1c-1.7-3.6-3.6-7.1-5.2-10.7c-1.8-3.8-3.3-7.7-4.6-11.7
	c-17.3-57.1-9.2-109.7,30.4-155.3c25.2-29,58-43.2,96.8-40.9c28.5,1.7,52.9,13.6,73.8,32.9c0.3,0.3,0.5,0.6,0.7,1
	c-7.7,2.5-15.9,4-23,7.6c-22.1,11.3-32,30.6-33.3,54.7c-0.9,15.6,2.9,30.1,12.6,42.7c13.4,17.3,31.6,22.3,52.4,20.5
	c13.6-1.2,24.7-7.4,33.3-18c0.8-1,1.8-2,3.4-3.7c1.9,8.6,3.8,16.4,5.3,24.2c5.7,28.8,21.7,50.7,44.6,68.1c1,0.8,1.9,1.6,3.1,2.7
	c-3.5,3.3-7,1.8-10.1,0.8c-20.3-6.1-35.7-18.9-47.6-36.1c-2-2.9-3.6-5.9-5.8-9.6h-29.6c-8,0-16-0.3-24,0.1c-4.8,0.2-7.6-1.5-10-5.5
	c-12.5-21-31-34.7-54.1-41.7c-8.8-2.7-18.2-3.6-27.5-4.7c-4.7-0.5-7.2-2.5-8.7-6.7c-6.1-16.7-3.7-32.4,5.3-47.4
	c0.3-0.6,0.6-1.2,0.9-1.8C405.6,244.5,405.5,244.3,405.4,243.8z"/>
<path class="st0" d="M324.7,161.5c0.4-12.3-8.3-19.3-24.9-19.7c48-35.2,66.7-84.5,70.8-141.8c0.6,0.6,1.1,1.3,1.6,2
	c19.7,51.8,16.7,101.9-11.9,149.6c-10.9,18.5-26.7,33.7-45.6,43.9c-15.6,8.4-31.9,15.9-47,25.1c-20.3,12.4-38.5,27.6-51.8,47.5
	c-19.4,29-19.8,60-8.5,92.2c14.6,41.7,39.8,75.8,72.4,104.9c0.5,0.4,0.9,0.9,2.3,2.5c-2.4-1.1-3.6-1.6-4.6-2.2
	c-34.9-20.8-64.4-47.2-82.6-84c-20.4-41.4-25-84.9-12.4-129.7c8.1-28.9,22.9-54,46.8-72.8c26.8-21.1,56.8-28.2,90.1-18.9
	C321.2,160.7,322.9,161.1,324.7,161.5z"/>
<path class="st0" d="M482,265.7c0.5-18.7,2.6-34,12.9-46.7c7.4-9.2,17.5-12.9,29.1-12.8c1.5,0,3.4,1.3,4.4,2.5
	c18.7,22.1,29.5,47.6,33.8,76.1c0.5,3.5,1.8,8.3,0.1,10.5c-4.5,5.8-9.7,11.6-15.9,15.5c-18.6,11.8-55,6.4-62.4-29.3
	C482.7,275.3,482.4,269,482,265.7z M525.4,247.7c-8.2,0.1-14.7,6.8-14.5,15c0.1,8.2,6.8,14.7,15,14.5c8.2-0.1,14.7-6.8,14.5-15
	c0,0,0,0,0,0c0-0.1,0-0.2,0-0.2C540.2,253.9,533.5,247.5,525.4,247.7L525.4,247.7z"/>
<path class="st0" d="M597.3,438.5c-14.9-3.2-29.9-6.2-44.7-9.8c-27.4-6.7-50.4-21.7-72.3-38.7c-17.5-13.5-36.1-24.4-58.7-26.1
	c-15.4-1.2-29.9,1.7-40,14.5c-8.7,11-9.1,23.6-4.4,36.5c5.9,16.1,17,28.3,29,40c29.3,28.5,62.5,51.8,97.1,73.3
	c1,0.6,1.9,1.3,2.8,1.9l-0.6,1.2c-6.8-3.2-13.7-6-20.2-9.7c-28.8-16.5-57.3-33.4-82.9-54.6c-15.3-12.7-29.6-26.5-39.2-44.3
	c-7.2-13.2-10.9-27.3-6.6-42.2c4.2-14.7,14.4-24.3,28.3-30.2c17.6-7.5,35.3-7.6,53.5-1.4c21.4,7.2,39.4,19.9,56.1,34.5
	c28.1,24.6,59.9,41.9,96.1,51c2.4,0.6,4.7,1.2,7.1,1.8L597.3,438.5z"/>
<path class="st0" d="M459.3,28.3c6.5,7.7,13.7,14.9,19.5,23.1c18.7,26.1,26.4,55,19.4,86.9c-2.9,13-2.1,13-13.7,6.6
	c-15-8.4-31.5-11.4-48.7-10.5c-1.8,0.1-3.5,0-6.3,0c22.4-32,29.9-67.4,28.1-105.1L459.3,28.3z"/>
<path class="st0" d="M772.7,262.4c6.1-9.6,12-18.8,17.8-28.1c3.2-4.9,6.1-9.9,8.8-15.1c3.5-7.4,1.1-11.7-6.8-13.5
	c-1.3-0.5-2.5-1.1-3.6-1.9l0.6-1.7c12.8,0,25.6,0,38.4,0.1c0.8,0,1.5,0.9,2.3,1.3c-0.8,0.7-1.4,1.8-2.3,1.9
	c-8.3,1.4-14.2,6.4-18.6,13.2c-10.6,16.5-21.1,33.1-31.6,49.8c-0.9,1.5-1.5,3.3-1.5,5.1c-0.1,10.5-0.2,21,0,31.5
	c0.2,9.7,2.8,12.1,12.6,13c1.2,0.1,2.4,1,3.6,1.5c-1.3,0.6-2.6,1.7-3.9,1.7c-14.2,0.1-28.3,0.1-42.5,0c-1.2,0-2.5-0.9-3.7-1.4
	c1.2-0.6,2.5-1.7,3.8-1.8c9.7-0.7,12.6-3.5,12.9-13.4s0.2-19.6,0.1-29.5c-0.1-1.8-0.6-3.6-1.5-5.1c-11.7-18-23.5-36-35.1-54
	c-3.2-5.1-8.3-8.8-14.1-10.4c-1-0.3-1.9-1.4-2.8-2.1c1.1-0.5,2.2-1.4,3.2-1.4c14.7-0.1,29.3-0.1,44,0c1.1,0,2.3,1.1,3.4,1.7
	c-1.1,0.6-2.3,1.2-3.5,1.6c-2,0.7-4.3,0.9-6.2,1.8c-3.4,1.7-4.8,4.6-3.3,8.3c1,2.5,2.2,4.9,3.6,7.1c7.9,12.5,15.9,25,24,37.4
	C771.4,260.8,772,261.6,772.7,262.4z"/>
<path class="st0" d="M1412.6,202.4l1.3,27l-1.2,1c-0.8-0.9-2.2-1.8-2.4-2.9c-3.6-14-8.7-17.9-23.3-17.9h-14.3
	c-0.1,2.1-0.3,3.7-0.3,5.3c-0.1,29-0.1,58-0.1,87c0,1.2,0,2.3,0.1,3.5c0.5,9.4,3,11.9,12.5,12.6c1.3,0.1,2.6,1.1,3.9,1.7
	c-1.4,0.5-2.8,1.5-4.2,1.5c-14,0.1-28,0.1-42,0c-1.2,0-2.5-0.9-3.8-1.4c1.3-0.6,2.5-1.7,3.8-1.8c8.8-0.7,12.2-3.2,12.3-11.2
	c0.3-32.1,0.1-64.3,0.1-97.6c-8.3,0.5-16.7,0.1-24.7,1.7c-7.8,1.5-10.6,8.4-12.1,15.6c-0.3,1.3-1.4,2.4-2.2,3.6
	c-0.5-1.4-1.4-2.7-1.4-4.1c0.3-7.8,0.8-15.6,1.2-23.6L1412.6,202.4z"/>
<path class="st0" d="M1065.4,202.5c0.4,9.3,0.9,18.2,1.3,27.1l-1.6,0.8c-0.8-1.1-2.1-2.1-2.2-3.3c-1.3-11.8-9.5-18-22.5-17.6
	c-4.8,0.1-9.6,0-14.8,0c-0.2,1.9-0.4,3.3-0.4,4.7c-0.1,29.1-0.1,58.3-0.1,87.5c0,1.5,0.1,3,0.2,4.5c0.6,8.4,3.3,11,11.8,11.7
	c1.5,0.1,3,1.2,4.4,1.8c-1.6,0.5-3.1,1.5-4.7,1.5c-13.7,0.1-27.3,0.1-41,0c-1.4,0-2.8-0.9-4.2-1.5c1.3-0.6,2.6-1.7,3.9-1.8
	c9.5-0.8,12.5-3.7,12.7-14.2c0.3-15.3,0.2-30.7,0.2-46v-48.6c-8.5,0.5-16.9,0.1-24.9,1.6c-7.7,1.5-10.8,8.2-12.2,15.5
	c-0.3,1.5-1.2,2.8-1.9,4.2l-2-0.6c0.5-9,0.9-18,1.4-27.4L1065.4,202.5z"/>
<path class="st0" d="M894.3,327.3c-22-0.1-38.6-15-42.5-38.1c-4.2-24.9,10-48.3,32.8-54c28.9-7.2,55.6,16.8,53.4,48
	c-1.6,22.8-16,39.8-36.7,43.5C899,327,896.7,327.2,894.3,327.3z M923.8,281.5l-0.8-0.2c-0.3-3.8-0.3-7.7-0.8-11.5
	c-0.5-4-1.4-7.9-2.6-11.7c-4.2-12.7-12.8-19.2-24.9-19.3c-11.9-0.1-21.1,6.6-25.1,19.1c-4.9,14.7-4.7,30.5,0.4,45.1
	c1.8,5.2,4.9,9.8,8.9,13.6c12.8,11.7,34.1,5.4,40.2-11.9C921.7,297.5,922.3,289.3,923.8,281.5z"/>
<path class="st0" d="M694.1,277.1c0.1,20.9-11.9,39-29.6,44.9c-24.1,8-49.3-5.7-55.2-30.4c-4.8-20-1.2-38,15.5-51.4
	c13.1-10.4,28.2-12.4,43.3-5.7c16,7.2,24.4,20.6,26,38.1C694.2,274.1,694.1,275.6,694.1,277.1z M680.4,278.1
	c-1.9-8.5-3.2-17.8-6.2-26.4c-3.5-9.9-11.4-15.3-22.2-15.7s-19,3.9-23.6,13.6c-8.5,18.2-8.2,36.8-0.3,55.1
	c4.5,10.3,12.8,15.5,24.3,14.6c11.3-0.9,19.2-7,22.8-17.4C677.8,294.6,678.6,286.7,680.4,278.1L680.4,278.1z"/>
<path class="st0" d="M1197.6,231.1h41.5l0.3,1.3c-1.2,0.4-2.3,0.8-3.5,1.1c-5.7,1.4-7.2,4.4-4.1,9.5c4.8,7.8,10,15.3,15.6,23.8
	c6.8-8.9,13.4-17.1,19.5-25.8c2.2-3.2,0.2-6.6-3.8-7.5c-1.7-0.4-3.4-0.6-5.1-0.8c0-0.4,0.1-0.9,0.1-1.3h32l0.2,1.1
	c-2.3,0.7-4.9,0.9-6.7,2.2c-4.3,3.3-8.8,6.7-12.3,10.8c-6.5,7.6-12.5,15.6-18.4,23.6c-0.9,1.2-1.2,3.9-0.4,5
	c7.8,12,15.9,23.8,23.9,35.7c3.8,5.7,8.7,9.9,16.6,10.5c-3.7,2.9-35.9,3-39.6,0.9c0.1-0.1,0.1-0.4,0.2-0.4c10.3-3.9,10.7-5,4.4-14.6
	l-15.5-23.6c-1.8,2.2-3.4,4-4.9,5.9c-5.2,6.7-10.4,13.4-15.6,20.2s-4.1,9.2,3.8,11.5c0.6,0.2,1.1,0.5,1.5,1.8h-31.9
	c-0.1-0.3-0.1-0.6-0.2-1c0.6-0.4,1.3-0.7,2-1c7.6-2,13.5-6.5,18.3-12.5c7.2-9,14.4-18,21.3-27.1c1-1.3,1.3-4.2,0.5-5.5
	c-6.9-10.5-13.9-20.8-21.2-30.9c-4.1-5.7-9.5-9.8-16.8-10.7c-0.7-0.2-1.4-0.5-2-0.9C1197.4,231.9,1197.5,231.5,1197.6,231.1z"/>
<path class="st0" d="M1080.2,322.2c15.2-4.2,12.4-7,12.7-19.4c0.4-17.6,0.2-35.3,0.2-53c0-2.5,0-5-0.2-7.5c-0.6-6.9-2.4-8.6-9.3-9.2
	c-1.2-0.1-2.3-0.4-3.5-0.6l0.2-1.3h70.1c0.3,6.3,0.6,12.8,0.9,19.2l-1.8,0.4c-0.8-1.6-1.4-3.2-2-4.8c-2.2-7.5-4.8-10-12.7-10.3
	c-9.3-0.3-18.6-0.1-28.4-0.1v35.4c8.7,0,17.5,0.2,26.2-0.1c4-0.2,5.8-3.5,6.8-7.1c0.5-1.8,0.9-3.6,1.4-5.4l1.4,0.2v31.6l-1.5,0.2
	c-0.5-1.6-1-3.2-1.3-4.9c-0.7-5-3.6-8.1-8.5-8.4c-8.1-0.4-16.2-0.1-24.8-0.1c0,12-0.2,23.7,0.2,35.5c0,1.5,3.1,4.2,4.8,4.3
	c8.7,0.4,17.3,0.3,26-0.2c8.1-0.6,12-7,15.9-13.1c1-1.6,2.3-3.2,3.4-4.8l1.5,0.8c-1.6,4.8-3.1,9.5-4.8,14.3
	c-3.6,10.2-0.9,8.4-11.9,8.5c-18.5,0.1-37,0-55.5,0C1084,322.6,1082.1,322.4,1080.2,322.2z"/>
<path class="st0" d="M624.8,397.4c6.5,1.8,12.2,5.6,16.6,10.7c3.2,3.6,4,8.7,1.9,13.1c-3.5,7.8-21,17.9-28.8,17.3L624.8,397.4z"/>
<path class="st0" d="M532,199.7c5.1,1.9,10.2,3.6,15.2,5.8c7.1,3.2,8.7,2.8,12.3-3.8c0.6-1.1,1.8-1.8,3.8-3.8
	c0.9,14.3,1.7,27,2.5,39.7l-1.6,0.7c-1-1.4-2.4-2.6-3-4.2c-4.4-11.9-11.4-21.3-23.6-26.3c-2.7-1.1-4.8-3.8-7.2-5.8L532,199.7z"/>
<path class="st0" d="M530.2,440.2c24.5,7.5,48.3,7.9,72.2,6.4C589.9,457.9,547,454.6,530.2,440.2z"/>
<path class="st0" d="M347.4,658.1h-22.3c0.6-5.9,4.3-8.9,10.8-9.1C342.6,648.8,346.6,651.9,347.4,658.1z"/>
<path class="st0" d="M728.4,659.6h-22.6c0.5-5.9,4-9,10.2-9.4C722.7,649.8,726.9,652.8,728.4,659.6z"/>
<path class="st0" d="M223,661.1c0.1-7.9,4.5-12.4,12.4-12.3s12.5,5.1,12.5,13.1c0,7.7-4.8,12.6-12.3,12.7
	C227.7,674.5,222.9,669.4,223,661.1z"/>
<path class="st0" d="M511.9,662.1c0-7.9,4.6-12.6,12.3-12.5s12.6,5.1,12.6,13s-4.8,12.9-12.7,12.7S511.8,670.3,511.9,662.1z"/>
</svg>
