<svg id="Layer_1" data-name="Layer 1" xmlns="http://www.w3.org/2000/svg" viewBox="0 0 1487.19 701.12"><path d="M222.75,156.5c-11.56,8.81-22.72,16.43-32.88,25.21-42.93,37.11-72,83-80.61,139.39-14.85,97.41,22.37,173.76,100.07,231.25,44.41,32.84,95.42,49.26,150.47,51.76,29.42,1.33,59,.81,88.41.36,43.51-.66,85.33-11.27,126.76-23.32a529.55,529.55,0,0,0,120.86-52c18.5-10.89,36-23.5,54.52-34.35,43-25.19,88.7-44.4,136.37-58.84,72.25-21.89,146-33.94,221.65-31.4,99.17,3.33,190.82,31.3,273.46,86.88A427.14,427.14,0,0,1,1484.35,588a12.1,12.1,0,0,1,2.84,5.82c-5.63-4.79-11.11-9.78-17-14.31-8.63-6.71-17.56-13-26.29-19.61-21.83-16.45-46.72-26.84-72.13-36-31.59-11.36-64.18-18.85-97.4-23.72a624.17,624.17,0,0,0-160-2.75c-55.13,6.12-108.58,18.92-158.65,43.63-29.25,14.43-56,32.33-76.7,58.06-16.63,20.68-26.62,43.94-24.5,71,.81,10.32,3.76,20.47,5.8,31H113.08c1.17-8.57,2.56-17.06,3.45-25.59C122.24,620.72,81.3,553.91,5.71,560.36l-5.58.46v-5.65q0-196.47-.13-393c0-4.66,1-6.23,6-6.21q106.23.43,212.48.48Zm-158,51.64a17.52,17.52,0,0,0-35-.91c0,.52,0,1,0,1.55a17.52,17.52,0,0,0,35-.64ZM207.75,644c-5-11.55-18.61-16.36-33.61-12.07-12.58,3.59-18.8,13.45-16.85,26.73,2,13.65,12.07,20.79,29,20.57,11.81-.16,21.26-6.76,22.32-15.88L201.39,662c-2.13,6.38-6.2,10-12.22,11.25-16.34,3.52-28.09-9.73-23-25.92,2-6.45,6.7-9.86,13.1-10.8,6.72-1,13.92-1.38,18.2,5,3,4.47,5.9,4.44,10.29,2.43Zm148.09,19.37c-.28-12.31-6.64-18.74-18.37-19.3s-20,5.45-21.09,15.23c-1.13,10.22,4.59,18,14.61,19.91,12,2.28,21.77-1.83,24-10.32-3.64-1-6.52-1.34-9.42,2.47-3.42,4.49-8.8,4.33-13.77,2.55-4.56-1.64-7.2-5-7.41-10.54ZM736,664.66c1-10.67-5.19-18-15.66-19.29-11.88-1.47-21.54,4.35-23.09,13.92-1.74,10.76,3.71,18.73,14.13,21.1,9.11,2.07,23-.67,24.25-10.16-5.54-1.43-5.54-1.43-9.23,2.45-3.18,3.35-9.37,4.43-14.42,2.27-4.25-1.82-6.93-4.88-6.72-10.29ZM235.9,679.36a21.74,21.74,0,0,0,3-.16c10.31-1.09,16.21-7.08,16.42-16.66.23-10.26-5.41-17.28-15.68-18.37a36.22,36.22,0,0,0-13.74,1.18c-6.91,2-10.4,7.35-10.66,14.66-.39,12.21,7,19.35,20.67,19.35Zm289.56.94a21.81,21.81,0,0,0,3.17-.2c8.6-1.18,14.54-6.5,15.57-13.89,1.3-9.25-2.13-16.33-10.13-19.65-7.61-3.16-15.46-3.24-22.49,1.42a17.63,17.63,0,0,0-6.33,7.92c-5,13.28,4.11,24.48,20.22,24.4Zm-48.12-1.1a30.28,30.28,0,0,0,0-4.26c-1.72-10.8,1.42-19.57,9.74-27,4.84-4.3,8.59-9.82,13-15.06-5.76-1.53-9.54-.63-12.73,4-4,5.86-8.9,11.14-13.61,16.91C469,648,464,642.63,459.81,636.71c-3.36-4.72-7.4-5.35-12.94-4.05,1.16,1.53,2.07,2.84,3.1,4.05,5.48,6.48,11.15,12.8,16.38,19.47a14.67,14.67,0,0,1,2.8,7.5c.43,5.07.13,10.2.13,15.48ZM587,681V645.89h-7c0,6.38.13,12.34,0,18.29-.21,7.57-3.89,11.16-11,11.14-6.49,0-8.85-2.8-9-10.84-.09-6.25,0-12.5,0-18.7h-7.15c0,8.51-.14,16.62.06,24.73.11,4.28,2.83,7.06,6.7,8.48,7.17,2.63,14,2,19.32-2Zm223.68-.82V639h18.73V633.6H782.78c.22,2,.39,3.52.63,5.68h19.43v40.91ZM692,633.31H645.17c.14,1.84.25,3.25.4,5.26H665v41.28h8.1V638.53H692Zm88.35,46.4L765,662.26l13.87-15.39c-10.66-3.9-12.57,6.87-18.66,10.25-5.44-4.41-7.66-14.18-18-10.23l13.75,15.69L741,679.8c5.35,1,9.33,1,12.23-3.76,1.92-3.18,4.74-5.82,7-8.52,6.87,4.28,8.3,15.67,20.08,12.19Zm-381-11.91c-3.77-1.59-6.74-1.68-8.54,3-.58,1.53-2.84,2.79-4.61,3.42-4.53,1.64-9,1.07-12.52-2.38-4.39-4.37-4.08-10-2.74-15.44,1-4.19,4.17-6.3,8.22-7s8.5-.6,10.85,3.18c2.54,4.08,5.2,3.5,8.55,2.11-.94-7.94-11-12-21.69-10.15-9.57,1.61-15,8.62-14.45,18.42.57,10,7.52,16.37,18.55,17C390.54,680.53,398,675.61,399.32,667.8Zm6.8-17,1.21-.16c0,6.81-.1,13.62,0,20.42.11,5.8,2.39,8.1,8.17,8.5,2.41.16,4.84,0,7.71,0L422,674.49l-1,1c-2.05-1.61-5.67-3-5.86-4.85-.7-6.69-.28-13.49-.28-19.47l7-3.82-7.46-3.74V633.8c-7.22.61-8,5.23-7.49,9.2L402,647.53Zm192.51-6V674c0,6.54.73,7,7.22,5.21a1.39,1.39,0,0,0,.17-.44c0-5.16-.07-10.32,0-15.48,0-10.59,2.83-13,13.6-11.57.66-1.5,1.37-3.1,2.08-4.69-6.67-3.13-9.3-2.79-14.4.71Zm-326.37,1.91-8.65-2.82v34.48h7.12c.22-.49.47-.79.47-1.09V661.8c.05-10.07,2.85-12.52,12.66-11.16a5.17,5.17,0,0,0,1.18-.4c.54-1.34,1.14-2.84,1.78-4.46-6-3-11.19-2.77-14.6.91Zm26.35,31.72V662.8c0-11,2.7-13.47,13.68-12.12l2-4.83c-6.11-2.88-11.3-2.77-16.26,2.84-.27-6-3.69-3.91-6.49-3.85v33.58Z"/><path d="M405.35,243.8c-18.66,12-28.68,35.34-21,57.54-26.91,8.23-40.1,26.1-38.76,54.51-7.73-28.28-5-55.92,5.87-83.32-9.93,2.93-23.32,27.84-28.32,51.18-4.25,19.78-.2,39.39,3.26,59.15-1.74-3.56-3.61-7.07-5.19-10.7a108.51,108.51,0,0,1-4.58-11.69c-17.28-57.12-9.19-109.7,30.39-155.29,25.18-29,58-43.24,96.79-40.9,28.54,1.73,52.94,13.55,73.82,32.88a3.71,3.71,0,0,1,.71,1c-7.73,2.48-15.89,4-23,7.57-22.1,11.3-32,30.62-33.32,54.74-.86,15.64,2.85,30.1,12.57,42.67C488,320.4,506.17,325.48,527,323.68c13.64-1.18,24.7-7.39,33.35-18,.83-1,1.75-2,3.37-3.74,1.91,8.58,3.8,16.37,5.35,24.22,5.67,28.76,21.67,50.72,44.62,68.15,1,.75,1.91,1.63,3.13,2.68-3.5,3.29-7,1.76-10.12.8-20.31-6.15-35.72-18.85-47.62-36.11-2-2.85-3.63-5.92-5.84-9.56H523.63c-8,0-16-.3-24,.12-4.79.24-7.56-1.46-10-5.51-12.47-21.05-31-34.69-54.12-41.66-8.84-2.66-18.25-3.63-27.48-4.68-4.68-.53-7.18-2.49-8.72-6.68-6.14-16.7-3.67-32.38,5.32-47.36a19.17,19.17,0,0,0,.89-1.75C405.63,244.52,405.51,244.34,405.35,243.8Z"/><path d="M324.69,161.51c.44-12.34-8.33-19.26-24.89-19.69C347.75,106.64,366.53,57.31,370.56,0a10.21,10.21,0,0,1,1.59,2c19.73,51.75,16.72,101.9-11.85,149.63a117.79,117.79,0,0,1-45.58,43.86c-15.65,8.41-31.86,15.9-47,25.13-20.27,12.35-38.49,27.61-51.82,47.47-19.43,29-19.79,60-8.47,92.25C222,402,247.23,436.11,279.87,465.2c.47.42.85.94,2.3,2.55-2.44-1.14-3.6-1.57-4.65-2.19-34.89-20.76-64.38-47.17-82.55-84-20.43-41.42-25-84.93-12.39-129.68,8.14-28.93,22.88-54,46.75-72.76,26.82-21.12,56.83-28.2,90.15-18.87C321.16,160.71,322.88,161.07,324.69,161.51Z"/><path d="M482,265.66c.55-18.73,2.61-34,12.92-46.73,7.44-9.18,17.51-12.92,29.06-12.84,1.5,0,3.39,1.28,4.44,2.52,18.68,22.06,29.54,47.64,33.83,76.1.53,3.52,1.81,8.32.12,10.51-4.49,5.82-9.74,11.59-15.89,15.5-18.62,11.83-55,6.42-62.44-29.26C482.73,275.31,482.39,269,482,265.66Zm43.42-18a14.77,14.77,0,1,0,15,14.53,2.09,2.09,0,0,1,0-.25,14.68,14.68,0,0,0-15-14.31Z"/><path d="M597.27,438.53c-14.9-3.25-29.87-6.19-44.68-9.81C525.23,422,502.21,407,480.3,390c-17.47-13.5-36.12-24.35-58.68-26.07-15.37-1.17-29.87,1.71-40,14.54-8.72,11-9.08,23.59-4.36,36.46,5.89,16.07,17,28.31,29,40,29.28,28.55,62.51,51.8,97.08,73.3,1,.6,1.87,1.28,2.8,1.93l-.59,1.18c-6.75-3.19-13.74-6-20.19-9.65-28.75-16.51-57.3-33.41-82.94-54.6-15.31-12.67-29.59-26.55-39.21-44.26-7.16-13.16-10.87-27.29-6.56-42.25,4.25-14.74,14.44-24.33,28.29-30.25,17.64-7.55,35.32-7.57,53.52-1.41,21.43,7.25,39.4,19.91,56.07,34.53,28.08,24.64,59.92,41.88,96.14,51,2.36.59,4.72,1.22,7.08,1.83Z"/><path d="M459.32,28.26c6.54,7.66,13.67,14.9,19.5,23.07,18.68,26.12,26.39,55,19.41,86.87-2.86,13-2.11,13-13.66,6.58-15-8.41-31.49-11.43-48.67-10.53-1.75.09-3.52,0-6.28,0,22.44-32,29.88-67.35,28.09-105.07Z"/><path d="M772.72,262.36c6.1-9.61,12-18.81,17.82-28.08a156.3,156.3,0,0,0,8.8-15.07c3.52-7.36,1.06-11.74-6.77-13.53a16.1,16.1,0,0,1-3.64-1.88l.6-1.7q19.19,0,38.36.06c.77,0,1.53.86,2.3,1.32-.75.66-1.43,1.76-2.28,1.91-8.32,1.45-14.18,6.37-18.57,13.2q-15.93,24.79-31.59,49.75a10.13,10.13,0,0,0-1.49,5.11c-.11,10.5-.16,21,0,31.48.19,9.66,2.82,12.15,12.56,13,1.25.11,2.43,1,3.63,1.53-1.29.59-2.59,1.7-3.89,1.71q-21.24.18-42.47,0c-1.24,0-2.48-.91-3.72-1.39,1.25-.64,2.47-1.74,3.76-1.83,9.73-.72,12.64-3.47,12.9-13.36s.23-19.65.13-29.47a10.12,10.12,0,0,0-1.55-5.09c-11.66-18-23.47-36-35.13-54a24.28,24.28,0,0,0-14.12-10.4c-1-.31-1.87-1.39-2.79-2.12,1.08-.49,2.15-1.39,3.23-1.39q22-.15,44,0c1.13,0,2.26,1.08,3.39,1.66a32.09,32.09,0,0,1-3.52,1.63c-2,.67-4.28.86-6.18,1.79-3.43,1.69-4.8,4.58-3.26,8.29a45.17,45.17,0,0,0,3.58,7.12q11.91,18.76,24,37.42A26.57,26.57,0,0,0,772.72,262.36Z"/><path d="M1412.63,202.42l1.27,27-1.17,1c-.83-.95-2.15-1.78-2.43-2.88-3.63-14-8.68-17.92-23.28-17.94h-14.29c-.13,2.13-.31,3.73-.31,5.33q-.08,43.48-.1,87c0,1.16,0,2.33.07,3.49.5,9.4,3,11.89,12.46,12.63,1.35.1,2.63,1.13,3.94,1.73-1.39.52-2.78,1.49-4.18,1.5q-21,.17-42,0c-1.25,0-2.5-.92-3.76-1.41,1.28-.63,2.51-1.71,3.83-1.82,8.75-.74,12.25-3.18,12.33-11.23.29-32.13.12-64.27.12-97.55-8.3.48-16.68.12-24.68,1.69-7.75,1.52-10.55,8.41-12.06,15.65-.26,1.29-1.45,2.39-2.22,3.57-.49-1.36-1.45-2.74-1.4-4.08.28-7.8.79-15.58,1.23-23.65Z"/><path d="M1065.38,202.5c.44,9.29.86,18.22,1.29,27.15l-1.57.82c-.77-1.08-2.1-2.1-2.23-3.26-1.34-11.79-9.48-18-22.54-17.62-4.8.13-9.61,0-14.81,0-.17,1.86-.41,3.29-.42,4.71Q1025,258,1025,301.76c0,1.49.08,3,.19,4.49.62,8.41,3.31,11,11.78,11.72,1.52.14,3,1.17,4.44,1.79-1.57.51-3.13,1.45-4.7,1.46q-20.49.18-41,0c-1.4,0-2.8-.94-4.21-1.45,1.31-.61,2.58-1.66,3.92-1.77,9.54-.82,12.47-3.69,12.67-14.23.31-15.33.18-30.66.2-46V209.2c-8.54.48-16.93.09-24.94,1.64-7.71,1.48-10.79,8.18-12.17,15.52-.27,1.46-1.25,2.78-1.9,4.17l-2-.64c.45-9,.9-18,1.36-27.43Z"/><path d="M894.34,327.3c-22-.15-38.62-15-42.55-38.14-4.24-24.92,10-48.26,32.8-54,28.94-7.22,55.62,16.79,53.37,48-1.64,22.76-16,39.81-36.67,43.46A56.18,56.18,0,0,1,894.34,327.3Zm29.48-45.77-.83-.18c-.26-3.82-.3-7.68-.85-11.45a71.56,71.56,0,0,0-2.6-11.67c-4.18-12.66-12.78-19.2-24.88-19.29-11.88-.09-21.09,6.61-25.06,19.09a69.86,69.86,0,0,0,.38,45.14,34.49,34.49,0,0,0,8.86,13.57c12.77,11.66,34.06,5.44,40.25-11.89C921.73,297.45,922.3,289.32,923.82,281.53Z"/><path d="M694.1,277.12c.1,20.86-11.9,38.95-29.62,44.87-24.09,8-49.28-5.68-55.16-30.42-4.75-20-1.23-38,15.52-51.36,13.06-10.41,28.16-12.41,43.29-5.66,16,7.17,24.36,20.58,26,38.08C694.22,274.11,694.1,275.62,694.1,277.12Zm-13.65,1c-1.93-8.49-3.17-17.78-6.23-26.44-3.49-9.92-11.38-15.26-22.19-15.7s-19,3.91-23.56,13.59c-8.5,18.18-8.25,36.79-.27,55.06,4.5,10.32,12.82,15.52,24.32,14.65,11.28-.86,19.16-7,22.77-17.39,2.52-7.31,3.34-15.18,5.16-23.8Z"/><path d="M1197.63,231.12h41.47l.29,1.29c-1.17.37-2.34.81-3.53,1.11-5.71,1.43-7.24,4.43-4.13,9.49,4.78,7.78,10,15.31,15.59,23.81,6.79-8.9,13.4-17.14,19.49-25.77,2.24-3.17.19-6.55-3.75-7.49-1.67-.39-3.38-.55-5.08-.82,0-.44.07-.88.1-1.31h32l.21,1.08c-2.26.71-4.92.89-6.71,2.23-4.34,3.27-8.76,6.66-12.27,10.75-6.5,7.57-12.47,15.61-18.41,23.64-.88,1.19-1.17,3.9-.42,5,7.81,12,15.87,23.84,23.9,35.7,3.85,5.67,8.74,9.92,16.63,10.48-3.74,2.9-35.94,3.05-39.61.87.06-.15.08-.39.18-.43,10.33-3.88,10.66-5,4.37-14.59l-15.5-23.62c-1.84,2.22-3.43,4-4.9,5.9-5.21,6.7-10.45,13.39-15.55,20.18s-4.11,9.25,3.84,11.47c.57.16,1.1.49,1.54,1.76h-31.92c-.06-.32-.11-.64-.17-1a10.1,10.1,0,0,1,2-1c7.59-2,13.46-6.49,18.26-12.45,7.21-9,14.37-18,21.29-27.12,1-1.29,1.34-4.24.54-5.46q-10.28-15.68-21.16-30.92c-4.09-5.72-9.47-9.81-16.79-10.68a7.35,7.35,0,0,1-2-.9A4.18,4.18,0,0,1,1197.63,231.12Z"/><path d="M1080.24,322.24c15.17-4.24,12.45-7,12.71-19.4.37-17.65.15-35.31.16-53,0-2.5,0-5-.18-7.49-.58-6.91-2.39-8.62-9.27-9.17-1.17-.1-2.32-.38-3.48-.57l.15-1.29h70.14c.3,6.31.61,12.78.92,19.25l-1.84.43a43.92,43.92,0,0,1-2-4.81c-2.18-7.54-4.85-10-12.65-10.28-9.31-.28-18.63-.06-28.4-.06v35.4c8.72,0,17.47.25,26.2-.11,4-.16,5.8-3.5,6.76-7.11.47-1.78.91-3.58,1.36-5.37l1.41.21V290.5l-1.48.23a40.77,40.77,0,0,1-1.29-4.85c-.71-5-3.61-8.13-8.47-8.36-8.09-.38-16.22-.1-24.8-.1,0,11.95-.19,23.73.22,35.48,0,1.55,3.06,4.21,4.78,4.29a237.39,237.39,0,0,0,26-.2c8.11-.56,12-7,15.88-13.14,1-1.65,2.26-3.17,3.4-4.75l1.54.78c-1.6,4.76-3.13,9.54-4.81,14.27-3.6,10.2-.86,8.38-11.88,8.45-18.49.12-37,0-55.46,0C1084,322.62,1082.1,322.37,1080.24,322.24Z"/><path d="M624.82,397.37a33.65,33.65,0,0,1,16.57,10.74,11.81,11.81,0,0,1,1.91,13.06c-3.5,7.77-21,17.9-28.75,17.34Z"/><path d="M532,199.73c5.07,1.91,10.24,3.58,15.17,5.78,7.14,3.18,8.66,2.81,12.31-3.8.59-1.05,1.77-1.78,3.82-3.77.9,14.33,1.7,27,2.5,39.7l-1.56.7c-1-1.39-2.42-2.64-3-4.2-4.41-11.9-11.38-21.3-23.61-26.27-2.73-1.12-4.81-3.82-7.2-5.79Z"/><path d="M530.16,440.21c24.48,7.54,48.26,7.93,72.21,6.44C589.87,457.92,547,454.58,530.16,440.21Z"/><path d="M347.4,658.11H325.07c.58-5.87,4.26-8.94,10.78-9.1C342.63,648.8,346.63,651.86,347.4,658.11Z"/><path d="M728.36,659.57h-22.6c.52-5.88,4-9,10.17-9.37C722.69,649.8,726.92,652.8,728.36,659.57Z"/><path d="M223,661.06c.05-7.93,4.54-12.4,12.38-12.33s12.54,5.13,12.5,13.07c0,7.74-4.77,12.63-12.28,12.68C227.73,674.52,222.89,669.38,223,661.06Z"/><path d="M511.86,662.1c0-7.94,4.61-12.57,12.3-12.49s12.6,5.12,12.6,13-4.84,12.89-12.67,12.74S511.81,670.26,511.86,662.1Z"/></svg>