<?xml version="1.0" encoding="utf-8"?>
<!-- Generator: Adobe Illustrator 24.3.0, SVG Export Plug-In . SVG Version: 6.00 Build 0)  -->
<svg version="1.1" id="Capa_1" xmlns="http://www.w3.org/2000/svg" xmlns:xlink="http://www.w3.org/1999/xlink" x="0px" y="0px"
	 viewBox="0 0 512 512" style="enable-background:new 0 0 512 512;" xml:space="preserve">
<style type="text/css">
	.st0{fill:#F6F4E6;}
</style>
<path class="st0" d="M330,150c-19.3,0-35-15.7-35-35V0H116C85.7,0,61,24.7,61,55v402c0,30.3,24.7,55,55,55h280c30.3,0,55-24.7,55-55
	V150H330z M143,360h72.7c8.3,0,15,6.7,15,15s-6.7,15-15,15H143c-8.3,0-15-6.7-15-15S134.7,360,143,360z M128,295c0-8.3,6.7-15,15-15
	h220c8.3,0,15,6.7,15,15s-6.7,15-15,15H143C134.7,310,128,303.3,128,295z M363,200c8.3,0,15,6.7,15,15s-6.7,15-15,15H143
	c-8.3,0-15-6.7-15-15s6.7-15,15-15H363z"/>
<path class="st0" d="M325,115c0,2.8,2.2,5,5,5h114.3c-2.7-5.1-6.3-9.7-10.5-13.7L337.4,15c-3.7-3.5-7.9-6.5-12.4-8.8L325,115
	L325,115z"/>
</svg>
