<?xml version="1.0" encoding="utf-8"?>
<!-- Generator: Adobe Illustrator 24.3.0, SVG Export Plug-In . SVG Version: 6.00 Build 0)  -->
<svg version="1.1" id="Capa_1" xmlns="http://www.w3.org/2000/svg" xmlns:xlink="http://www.w3.org/1999/xlink" x="0px" y="0px"
	 viewBox="0 0 512 512" style="enable-background:new 0 0 512 512;" xml:space="preserve">
<style type="text/css">
	.st0{fill:#63564E;}
</style>
<g>
	<path class="st0" d="M482,271.8c-0.5-5.8-4.2-10.5-9.7-12.3l-44.4-15l43.2-49.6c2.9-3.3,4.1-7.6,3.3-11.9c-0.8-4.3-3.4-8-7.3-10
		l-55.8-30.2c-3.6-2-8.2-0.6-10.2,3c-2,3.6-0.6,8.2,3,10.2l55,29.8l-46.1,52.8l-145.5-78.8l27-31c3.1,1.1,6.5,1.8,10,1.8
		c10.9,0,20.3-6,25.3-14.9l41.7,22.6c1.1,0.6,2.4,0.9,3.6,0.9c2.7,0,5.2-1.4,6.6-3.9c2-3.6,0.6-8.2-3-10.2l-45.2-24.5
		c-0.5-15.5-13.3-28-29-28c-16,0-29,13-29,29c0,7,2.5,13.5,6.7,18.5L256,150.4l-46.9-53.8c-4.4-5.1-11.7-6.4-17.6-3.2l-18.3,9.9
		c-2.1-17-16.7-30.2-34.3-30.2c-19,0-34.5,15.5-34.5,34.5c0,10.5,4.7,20,12.2,26.3l-71.8,38.9c-3.8,2.1-6.5,5.7-7.3,10
		c-0.8,4.3,0.4,8.6,3.3,11.9L84,244.4l-44.4,15c-5.5,1.9-9.2,6.6-9.7,12.3c-0.5,5.8,2.4,11,7.4,13.8l52.1,28.2v28.3
		c0,4.1,3.4,7.5,7.5,7.5s7.5-3.4,7.5-7.5V322l72.9,39.5c3.1,1.7,6.6,2.5,10.1,2.5c2.3,0,4.6-0.4,6.8-1.1l54.2-18.4v149.2
		l-140.8-76.3c-2-1.1-3.2-3.1-3.2-5.4v-33c0-4.1-3.4-7.5-7.5-7.5s-7.5,3.4-7.5,7.5v33c0,7.8,4.2,14.9,11,18.6l145.4,78.8
		c3.1,1.7,6.6,2.6,10.1,2.6s6.9-0.9,10.1-2.6l145.4-78.8c6.8-3.7,11-10.8,11-18.6v-98.3l52.1-28.2
		C479.7,282.8,482.5,277.6,482,271.8L482,271.8z M272.6,213.8c26.3,7.4,44.6,31.6,44.6,58.9c0,7.6-1.4,15-4.1,22L256,325.6
		l-57.1-30.9c-2.7-7-4.1-14.4-4.1-22c0-27.4,18.4-51.6,44.8-58.9c4-1.1,6.3-5.2,5.2-9.2c-1.1-4-5.2-6.3-9.2-5.2
		c-32.8,9.1-55.7,39.3-55.7,73.4c0,4.1,0.3,8.2,1,12.2l-68-36.9L256,170.3l143.2,77.6l-68,36.9c0.6-4,1-8,1-12.2
		c0-34-22.8-64.1-55.5-73.3c-4-1.1-8.1,1.2-9.2,5.2C266.3,208.5,268.6,212.7,272.6,213.8z M304.8,87.5c7.7,0,14,6.3,14,14
		s-6.3,14-14,14c-7.7,0-14-6.3-14-14S297,87.5,304.8,87.5z M138.9,88.1c10.8,0,19.5,8.8,19.5,19.5c0,10.8-8.8,19.5-19.5,19.5
		s-19.5-8.8-19.5-19.5S128.1,88.1,138.9,88.1z M133.6,141.8c1.7,0.3,3.5,0.4,5.3,0.4c14,0,26-8.4,31.5-20.3l27.8-15.1l46.1,52.8
		L98.7,238.5l-46.1-52.8L133.6,141.8z M189.5,348.7c-1.6,0.5-3.4,0.4-4.9-0.4l-84-45.5c0,0,0,0-0.1,0l-54.6-29.6l50.4-17.1l141,76.4
		L189.5,348.7z M407.5,412.1c0,2.2-1.2,4.3-3.2,5.4l-140.8,76.3V344.5l54.2,18.4c2.2,0.7,4.5,1.1,6.8,1.1c3.5,0,7-0.9,10.1-2.5
		l72.9-39.5L407.5,412.1L407.5,412.1z M327.4,348.3c-1.5,0.8-3.3,1-4.9,0.4l-47.9-16.2l141-76.4l50.4,17.1L327.4,348.3z
		 M467.6,273.7C467.6,273.7,467.6,273.7,467.6,273.7L467.6,273.7z"/>
	<path class="st0" d="M312.1,424.7l-17.2,9.3c-3.6,2-5,6.5-3,10.2c1.4,2.5,3.9,3.9,6.6,3.9c1.2,0,2.4-0.3,3.6-0.9l17.2-9.3
		c3.6-2,5-6.5,3-10.2C320.3,424.1,315.7,422.7,312.1,424.7L312.1,424.7z"/>
	<path class="st0" d="M167.7,63.2c1.5,1.5,3.4,2.2,5.3,2.2s3.8-0.7,5.3-2.2l6.2-6.2l6.2,6.2c1.5,1.5,3.4,2.2,5.3,2.2
		s3.8-0.7,5.3-2.2c2.9-2.9,2.9-7.7,0-10.6l-6.2-6.2l6.2-6.2c2.9-2.9,2.9-7.7,0-10.6c-2.9-2.9-7.7-2.9-10.6,0l-6.2,6.2l-6.2-6.2
		c-2.9-2.9-7.7-2.9-10.6,0s-2.9,7.7,0,10.6l6.2,6.2l-6.2,6.2C164.8,55.5,164.8,60.2,167.7,63.2L167.7,63.2z"/>
	<path class="st0" d="M389.7,112.3c1.5,1.5,3.4,2.2,5.3,2.2c1.9,0,3.8-0.7,5.3-2.2l6.2-6.2l6.2,6.2c1.5,1.5,3.4,2.2,5.3,2.2
		s3.8-0.7,5.3-2.2c2.9-2.9,2.9-7.7,0-10.6l-6.2-6.2l6.2-6.2c2.9-2.9,2.9-7.7,0-10.6c-2.9-2.9-7.7-2.9-10.6,0l-6.2,6.2l-6.2-6.2
		c-2.9-2.9-7.7-2.9-10.6,0c-2.9,2.9-2.9,7.7,0,10.6l6.2,6.2l-6.2,6.2C386.8,104.6,386.8,109.4,389.7,112.3L389.7,112.3z"/>
	<path class="st0" d="M348.3,65.4c18,0,32.7-14.7,32.7-32.7c0-18-14.7-32.7-32.7-32.7c-18,0-32.7,14.7-32.7,32.7
		C315.7,50.7,330.3,65.4,348.3,65.4z M348.3,15c9.7,0,17.7,7.9,17.7,17.7c0,9.7-7.9,17.7-17.7,17.7s-17.7-7.9-17.7-17.7
		C330.7,22.9,338.6,15,348.3,15z"/>
	<path class="st0" d="M255.2,280.5c-7.2,0-14,2.4-19.2,6.8c-3.2,2.7-3.6,7.4-0.9,10.6c2.7,3.2,7.4,3.6,10.6,0.9
		c2.4-2,5.9-3.2,9.5-3.2h0.1c3.7,0,7.1,1.2,9.6,3.3c1.4,1.2,3.1,1.8,4.9,1.8c2.1,0,4.2-0.9,5.7-2.6c2.7-3.2,2.3-7.9-0.8-10.6
		C269.4,283,262.5,280.5,255.2,280.5C255.2,280.5,255.2,280.5,255.2,280.5z"/>
	<path class="st0" d="M223.4,258.3L223.4,258.3c-4.2-0.1-7.6,3.3-7.6,7.4c0,4.1,3.3,7.5,7.5,7.6h0.1c4.1,0,7.5-3.3,7.5-7.4
		C230.9,261.7,227.6,258.3,223.4,258.3L223.4,258.3z"/>
	<path class="st0" d="M287.2,273.2C287.2,273.2,287.2,273.2,287.2,273.2c0.3,0.1,0.5,0.1,0.7,0.1c0.1,0,0.1,0,0.2,0
		c0.2,0,0.3,0,0.5,0h0.1c0.3,0,0.5,0,0.8,0c3.8-0.4,6.7-3.6,6.7-7.5c0-3.8-2.9-7-6.6-7.4c0,0-0.1,0-0.1,0c-0.2,0-0.3,0-0.5,0
		c-0.1,0-0.2,0-0.2,0h0c0,0,0,0,0,0h0h0c0,0,0,0,0,0c-4.1,0-7.4,3.3-7.5,7.4C281.1,269.4,283.7,272.4,287.2,273.2L287.2,273.2z"/>
</g>
</svg>
