<?xml version="1.0" encoding="utf-8"?>
<!-- Generator: Adobe Illustrator 24.3.0, SVG Export Plug-In . SVG Version: 6.00 Build 0)  -->
<svg version="1.1" id="Layer_1" xmlns="http://www.w3.org/2000/svg" xmlns:xlink="http://www.w3.org/1999/xlink" x="0px" y="0px"
	 viewBox="0 0 18.7 18.7" style="enable-background:new 0 0 18.7 18.7;" xml:space="preserve">
<style type="text/css">
	.st0{fill:none;}
	.st1{fill:#63564E;}
</style>
<path class="st0" d="M-2.7-2.7h24v24h-24V-2.7z"/>
<path class="st1" d="M16.9,6.3l-4.8-0.4l-1.9-4.4c-0.3-0.8-1.5-0.8-1.8,0L6.5,5.9L1.7,6.3C0.8,6.4,0.5,7.5,1.1,8.1l3.7,3.2L3.7,16
	c-0.2,0.9,0.7,1.5,1.5,1.1l4.1-2.5l4.1,2.5c0.8,0.5,1.7-0.2,1.5-1.1l-1.1-4.7l3.7-3.2C18.2,7.5,17.8,6.4,16.9,6.3z M9.3,12.7L5.5,15
	l1-4.3L3.2,7.8l4.4-0.4l1.7-4l1.7,4l4.4,0.4l-3.3,2.9l1,4.3L9.3,12.7z"/>
</svg>
