<svg id="Layer_1" data-name="Layer 1" xmlns="http://www.w3.org/2000/svg" viewBox="0 0 511.06 489.6"><defs><style>.cls-1{fill:#63564e;}</style></defs><path class="cls-1" d="M509.7,196a27.27,27.27,0,0,0-23.4-18.7L338.8,164,280.5,27.5a27.19,27.19,0,0,0-50,0L172.2,164,24.7,177.3A27.26,27.26,0,0,0,9.2,224.9l111.5,97.8L87.9,467.4a27,27,0,0,0,10.6,28,26.54,26.54,0,0,0,15.9,5.2,26.82,26.82,0,0,0,13.9-3.9l127.2-76.1,127.2,76.1a27.2,27.2,0,0,0,40.5-29.3L390.3,322.6l111.5-97.8A27.28,27.28,0,0,0,509.7,196Z" transform="translate(0.06 -11)"/></svg>