<?xml version="1.0" encoding="utf-8"?>
<!-- Generator: Adobe Illustrator 24.3.0, SVG Export Plug-In . SVG Version: 6.00 Build 0)  -->
<svg version="1.1" id="Capa_1" xmlns="http://www.w3.org/2000/svg" xmlns:xlink="http://www.w3.org/1999/xlink" x="0px" y="0px"
	 viewBox="0 0 512 512" style="enable-background:new 0 0 512 512;" xml:space="preserve">
<style type="text/css">
	.st0{fill:#63564E;}
</style>
<g>
	<g>
		<path class="st0" d="M436,60h-90V45c0-24.8-20.2-45-45-45h-90c-24.8,0-45,20.2-45,45v15H76c-24.8,0-45,20.2-45,45v30
			c0,8.3,6.7,15,15,15h16.2l26.4,320.9c0,0,0,0.1,0,0.1c2.1,23.3,21.4,40.9,44.8,40.9h245.2c23.4,0,42.7-17.6,44.8-40.9
			c0,0,0-0.1,0-0.1L449.8,150H466c8.3,0,15-6.7,15-15v-30C481,80.2,460.8,60,436,60z M196,45c0-8.3,6.7-15,15-15h90
			c8.3,0,15,6.7,15,15v15H196V45z M393.5,468.4c-0.7,7.8-7.1,13.6-14.9,13.6H133.4c-7.8,0-14.2-5.8-14.9-13.6L92.3,150h327.4
			L393.5,468.4z M451,120h-15H76H61v-15c0-8.3,6.7-15,15-15h105h150h105c8.3,0,15,6.7,15,15V120z"/>
	</g>
</g>
<g>
	<g>
		<path class="st0" d="M256,180c-8.3,0-15,6.7-15,15v212c0,8.3,6.7,15,15,15s15-6.7,15-15V195C271,186.7,264.3,180,256,180z"/>
	</g>
</g>
<g>
	<g>
		<path class="st0" d="M346,180c-8.3,0-15,6.7-15,15v212c0,8.3,6.7,15,15,15s15-6.7,15-15V195C361,186.7,354.3,180,346,180z"/>
	</g>
</g>
<g>
	<g>
		<path class="st0" d="M166,180c-8.3,0-15,6.7-15,15v212c0,8.3,6.7,15,15,15s15-6.7,15-15V195C181,186.7,174.3,180,166,180z"/>
	</g>
</g>
</svg>
