<?xml version="1.0" encoding="utf-8"?>
<!-- Generator: Adobe Illustrator 24.3.0, SVG Export Plug-In . SVG Version: 6.00 Build 0)  -->
<svg version="1.1" id="Capa_1" xmlns="http://www.w3.org/2000/svg" xmlns:xlink="http://www.w3.org/1999/xlink" x="0px" y="0px"
	 viewBox="0 0 512 512" style="enable-background:new 0 0 512 512;" xml:space="preserve">
<style type="text/css">
	.st0{fill:#63564E;}
</style>
<path class="st0" d="M106,512h300c24.8,0,45-20.2,45-45V150H346c-24.8,0-45-20.2-45-45V0H106C81.2,0,61,20.2,61,45v422
	C61,491.8,81.2,512,106,512z M166,211h180c8.3,0,15,6.7,15,15s-6.7,15-15,15H166c-8.3,0-15-6.7-15-15S157.7,211,166,211z M166,271
	h180c8.3,0,15,6.7,15,15s-6.7,15-15,15H166c-8.3,0-15-6.7-15-15S157.7,271,166,271z M166,331h180c8.3,0,15,6.7,15,15s-6.7,15-15,15
	H166c-8.3,0-15-6.7-15-15S157.7,331,166,331z M166,391h120c8.3,0,15,6.7,15,15s-6.7,15-15,15H166c-8.3,0-15-6.7-15-15
	S157.7,391,166,391z"/>
<path class="st0" d="M346,120h96.2L331,8.8V105C331,113.3,337.7,120,346,120z"/>
</svg>
