<svg width="406" height="414" viewBox="0 0 406 414" fill="none" xmlns="http://www.w3.org/2000/svg">
<path d="M338.399 0H54.8329V439H338.399V0Z" fill="white"/>
<path d="M101.867 128.231C111.237 128.231 118.833 120.637 118.833 111.269C118.833 101.901 111.237 94.3072 101.867 94.3072C92.4964 94.3072 84.9004 101.901 84.9004 111.269C84.9004 120.637 92.4964 128.231 101.867 128.231Z" fill="#AB8FE2" stroke="#F2F2F2" stroke-width="3" stroke-miterlimit="10"/>
<path d="M101.867 186.605C111.237 186.605 118.833 179.011 118.833 169.643C118.833 160.275 111.237 152.681 101.867 152.681C92.4964 152.681 84.9004 160.275 84.9004 169.643C84.9004 179.011 92.4964 186.605 101.867 186.605Z" fill="#AB8FE2" stroke="#F2F2F2" stroke-width="3" stroke-miterlimit="10"/>
<path d="M101.867 244.979C111.237 244.979 118.833 237.385 118.833 228.017C118.833 218.649 111.237 211.055 101.867 211.055C92.4964 211.055 84.9004 218.649 84.9004 228.017C84.9004 237.385 92.4964 244.979 101.867 244.979Z" stroke="#F2F2F2" stroke-width="3" stroke-miterlimit="10"/>
<path d="M101.867 303.341C111.237 303.341 118.833 295.747 118.833 286.379C118.833 277.011 111.237 269.417 101.867 269.417C92.4964 269.417 84.9004 277.011 84.9004 286.379C84.9004 295.747 92.4964 303.341 101.867 303.341Z" stroke="#F2F2F2" stroke-width="3" stroke-miterlimit="10"/>
<path d="M101.867 361.714C111.237 361.714 118.833 354.12 118.833 344.753C118.833 335.385 111.237 327.791 101.867 327.791C92.4964 327.791 84.9004 335.385 84.9004 344.753C84.9004 354.12 92.4964 361.714 101.867 361.714Z" stroke="#F2F2F2" stroke-width="3" stroke-miterlimit="10"/>
<path d="M285.909 35.7061H84.8885V55.5987H285.909V35.7061Z" fill="#F2F2F2"/>
<path d="M361.503 283.687H130.797V289.07H361.503V283.687Z" fill="#F2F2F2"/>
<path d="M361.503 342.049H130.797V347.432H361.503V342.049Z" fill="#F2F2F2"/>
<path d="M361.503 104.044H130.797V109.427H361.503V104.044Z" fill="#F2F2F2"/>
<path d="M131.503 118.506H302.564" stroke="black" stroke-miterlimit="10"/>
<path d="M361.503 162.418H130.797V167.801H361.503V162.418Z" fill="#F2F2F2"/>
<path d="M131.503 176.868H302.564" stroke="black" stroke-miterlimit="10"/>
<path d="M361.503 220.792H130.797V226.175H361.503V220.792Z" fill="#F2F2F2"/>
<path d="M131.503 235.242H302.564" stroke="black" stroke-miterlimit="10"/>
<path d="M297.336 426.332C312.25 426.332 324.34 414.245 324.34 399.334C324.34 384.424 312.25 372.337 297.336 372.337C282.421 372.337 270.331 384.424 270.331 399.334C270.331 414.245 282.421 426.332 297.336 426.332Z" fill="#78E5E1"/>
<path d="M308.762 401.918H299.98V410.758H294.727V401.918H285.945V396.643H294.727V387.863H300.016V396.643H308.798L308.762 401.918Z" fill="white"/>
</svg>
