<?xml version="1.0" encoding="utf-8"?>
<!-- Generator: Adobe Illustrator 24.3.0, SVG Export Plug-In . SVG Version: 6.00 Build 0)  -->
<svg version="1.1" id="Layer_1" xmlns="http://www.w3.org/2000/svg" xmlns:xlink="http://www.w3.org/1999/xlink" x="0px" y="0px"
	 viewBox="0 0 24 24" style="enable-background:new 0 0 24 24;" xml:space="preserve">
<style type="text/css">
	.st0{fill:none;}
	.st1{fill:#63564E;}
</style>
<path class="st0" d="M0,0h24v24H0V0z"/>
<path class="st1" d="M14.6,2.6C14.2,2.2,13.7,2,13.2,2H6C4.9,2,4,2.9,4,4v16c0,1.1,0.9,2,2,2h12c1.1,0,2-0.9,2-2V8.8
	c0-0.5-0.2-1-0.6-1.4C19.4,7.4,14.6,2.6,14.6,2.6z M15,18H9c-0.6,0-1-0.5-1-1s0.4-1,1-1h6c0.6,0,1,0.4,1,1S15.6,18,15,18z M15,14H9
	c-0.6,0-1-0.4-1-1s0.4-1,1-1h6c0.6,0,1,0.4,1,1S15.6,14,15,14z M13,8V3.5L18.5,9H14C13.4,9,13,8.5,13,8z"/>
</svg>
