<svg id="Layer_1" data-name="Layer 1" xmlns="http://www.w3.org/2000/svg" xmlns:xlink="http://www.w3.org/1999/xlink" viewBox="0 0 41.07 42.42"><defs><style>.cls-1{fill:url(#linear-gradient);}.cls-2{fill:url(#radial-gradient);}.cls-3{fill:url(#radial-gradient-2);}.cls-4{fill:url(#radial-gradient-3);}.cls-5{fill:#417b5a;}.cls-6{fill:#d95b5e;}.cls-7{fill:#2e5266;}.cls-8{fill:url(#radial-gradient-4);}.cls-9{fill:url(#radial-gradient-5);}</style><linearGradient id="linear-gradient" x1="36.86" y1="35.75" x2="2.73" y2="2.81" gradientTransform="matrix(1, 0, 0, -1, 0, 42.32)" gradientUnits="userSpaceOnUse"><stop offset="0.05" stop-color="#fff44f"/><stop offset="0.11" stop-color="#ffe847"/><stop offset="0.23" stop-color="#ffc830"/><stop offset="0.37" stop-color="#ff980e"/><stop offset="0.4" stop-color="#ff8b16"/><stop offset="0.46" stop-color="#ff672a"/><stop offset="0.53" stop-color="#ff3647"/><stop offset="0.7" stop-color="#e31587"/></linearGradient><radialGradient id="radial-gradient" cx="-270.94" cy="432.98" r="1" gradientTransform="matrix(42.87, 0, 0, -42.87, 11649.13, 18564.58)" gradientUnits="userSpaceOnUse"><stop offset="0.13" stop-color="#ffbd4f"/><stop offset="0.19" stop-color="#ffac31"/><stop offset="0.25" stop-color="#ff9d17"/><stop offset="0.28" stop-color="#ff980e"/><stop offset="0.4" stop-color="#ff563b"/><stop offset="0.47" stop-color="#ff3750"/><stop offset="0.71" stop-color="#f5156c"/><stop offset="0.78" stop-color="#eb0878"/><stop offset="0.86" stop-color="#e50080"/></radialGradient><radialGradient id="radial-gradient-2" cx="-270.94" cy="432.98" r="1" gradientTransform="matrix(42.87, 0, 0, -42.87, 11633.49, 18582.15)" gradientUnits="userSpaceOnUse"><stop offset="0.3" stop-color="#960e18"/><stop offset="0.35" stop-color="#b11927" stop-opacity="0.74"/><stop offset="0.43" stop-color="#db293d" stop-opacity="0.34"/><stop offset="0.5" stop-color="#f5334b" stop-opacity="0.09"/><stop offset="0.53" stop-color="#ff3750" stop-opacity="0"/></radialGradient><radialGradient id="radial-gradient-3" cx="-268.68" cy="429.51" r="1" gradientTransform="matrix(31.05, 0, 0, -31.05, 8367.98, 13332.59)" gradientUnits="userSpaceOnUse"><stop offset="0.13" stop-color="#fff44f"/><stop offset="0.25" stop-color="#ffdc3e"/><stop offset="0.51" stop-color="#ff9d12"/><stop offset="0.53" stop-color="#ff980e"/></radialGradient><radialGradient id="radial-gradient-4" cx="-267.84" cy="449.16" r="1" gradientTransform="matrix(4.82, 45.66, 29.96, -3.16, -12142.06, 13647.65)" gradientUnits="userSpaceOnUse"><stop offset="0" stop-color="#fff44f"/><stop offset="0.06" stop-color="#ffe847"/><stop offset="0.17" stop-color="#ffc830"/><stop offset="0.3" stop-color="#ff980e"/><stop offset="0.36" stop-color="#ff8b16"/><stop offset="0.46" stop-color="#ff672a"/><stop offset="0.57" stop-color="#ff3647"/><stop offset="0.74" stop-color="#e31587"/></radialGradient><radialGradient id="radial-gradient-5" cx="-270.37" cy="432.11" r="1" gradientTransform="matrix(39.11, 0, 0, -39.11, 10592.97, 16908.34)" gradientUnits="userSpaceOnUse"><stop offset="0.14" stop-color="#fff44f"/><stop offset="0.48" stop-color="#ff980e"/><stop offset="0.59" stop-color="#ff5634"/><stop offset="0.66" stop-color="#ff3647"/><stop offset="0.9" stop-color="#e31587"/></radialGradient></defs><path class="cls-1" d="M39.59,14.24c-.9-2.15-2.71-4.48-4.13-5.21a21.24,21.24,0,0,1,2.08,6.24v0c-2.33-5.8-6.27-8.14-9.49-13.23-.16-.25-.33-.51-.48-.78a3.74,3.74,0,0,1-.23-.43A4,4,0,0,1,27,.06.07.07,0,0,0,27,0h-.07V0a15,15,0,0,0-7.08,11.43,10.29,10.29,0,0,0-5.66,2.18,5.25,5.25,0,0,0-.53-.4,9.64,9.64,0,0,1-.06-5A15.13,15.13,0,0,0,8.67,12h0c-.82-1-.76-4.44-.72-5.15a3.4,3.4,0,0,0-.68.36,15,15,0,0,0-2,1.72,17.56,17.56,0,0,0-1.92,2.31h0A17.2,17.2,0,0,0,.57,17.48l0,.13c0,.18-.18,1.09-.2,1.29,0,0,0,0,0,0A19.3,19.3,0,0,0,0,21.78v.1a20.57,20.57,0,0,0,40.83,3.48l.09-.8A21.24,21.24,0,0,0,39.59,14.24ZM15.89,30.33l.28.14h0Zm21.66-15v0Z" transform="translate(0)"/><path class="cls-2" d="M39.59,14.24c-.9-2.15-2.71-4.48-4.13-5.21a21.24,21.24,0,0,1,2.08,6.24v0a18.68,18.68,0,0,1-.64,13.88,17.68,17.68,0,0,1-17,10C10.27,38.9,1.77,31.74.18,22.37a8.75,8.75,0,0,1,.15-3.43A15,15,0,0,0,0,21.78v.1a20.57,20.57,0,0,0,40.83,3.48l.09-.8A21.24,21.24,0,0,0,39.59,14.24Z" transform="translate(0)"/><path class="cls-3" d="M39.59,14.24c-.9-2.15-2.71-4.48-4.13-5.21a21.24,21.24,0,0,1,2.08,6.24v0a18.68,18.68,0,0,1-.64,13.88,17.68,17.68,0,0,1-17,10C10.27,38.9,1.77,31.74.18,22.37a8.75,8.75,0,0,1,.15-3.43A15,15,0,0,0,0,21.78v.1a20.57,20.57,0,0,0,40.83,3.48l.09-.8A21.24,21.24,0,0,0,39.59,14.24Z" transform="translate(0)"/><path class="cls-4" d="M29.59,16.65l.13.09a11.22,11.22,0,0,0-1.91-2.49C21.42,7.86,26.14.4,26.93,0V0a15,15,0,0,0-7.08,11.43c.24,0,.48,0,.73,0A10.38,10.38,0,0,1,29.59,16.65Z" transform="translate(0)"/><path class="cls-5" d="M20.6,17.93a5,5,0,0,1-2.48,2.27c-5.84,0-6.79,3.54-6.79,3.54a8.69,8.69,0,0,0,4.84,6.73l.35.16c.2.09.4.18.6.25a9,9,0,0,0,2.68.52C30,31.88,32,19.14,24.63,15.45a7.08,7.08,0,0,1,5,1.2,10.4,10.4,0,0,0-9-5.26c-.24,0-.48,0-.72,0a10.29,10.29,0,0,0-5.66,2.18c.31.27.67.62,1.41,1.35C17,16.34,20.59,17.76,20.6,17.93Z" transform="translate(0)"/><path class="cls-6" d="M20.6,17.93a5,5,0,0,1-2.48,2.27c-5.84,0-6.79,3.54-6.79,3.54a8.69,8.69,0,0,0,4.84,6.73l.35.16c.2.09.4.18.6.25a9,9,0,0,0,2.68.52C30,31.88,32,19.14,24.63,15.45a7.08,7.08,0,0,1,5,1.2,10.4,10.4,0,0,0-9-5.26c-.24,0-.48,0-.72,0a10.29,10.29,0,0,0-5.66,2.18c.31.27.67.62,1.41,1.35C17,16.34,20.59,17.76,20.6,17.93Z" transform="translate(0)"/><path class="cls-6" d="M13.24,12.92l.43.29a9.54,9.54,0,0,1-.06-5A15.28,15.28,0,0,0,8.66,12C8.76,12,11.75,12,13.24,12.92Z" transform="translate(0)"/><path class="cls-7" d="M.19,22.37C1.77,31.74,10.27,38.9,19.92,39.18a17.68,17.68,0,0,0,17-10,18.68,18.68,0,0,0,.64-13.88v0s0,0,0,0v0c.73,4.76-1.69,9.38-5.48,12.5v0c-7.38,6-14.44,3.63-15.87,2.65l-.3-.14c-4.3-2.06-6.08-6-5.7-9.34a5.29,5.29,0,0,1-4.87-3.07,7.77,7.77,0,0,1,7.56-.3,10.22,10.22,0,0,0,7.72.3c0-.16-3.58-1.59-5-3-.74-.74-1.1-1.09-1.41-1.36s-.35-.27-.53-.4l-.43-.28C11.75,12,8.77,12,8.67,12h0C7.85,11,7.9,7.57,8,6.86a4.52,4.52,0,0,0-.69.36A15,15,0,0,0,5.26,9a16.92,16.92,0,0,0-1.93,2.3h0A17.2,17.2,0,0,0,.57,17.48,15.37,15.37,0,0,0,.19,22.37Z" transform="translate(0)"/><path class="cls-8" d="M27.81,14.25a11.05,11.05,0,0,1,1.91,2.5L30,17c4.66,4.29,2.22,10.37,2,10.8,3.79-3.12,6.21-7.73,5.48-12.49-2.33-5.8-6.27-8.14-9.49-13.23-.17-.26-.33-.51-.49-.79a4.33,4.33,0,0,1-.22-.42A3.47,3.47,0,0,1,27,.06.06.06,0,0,0,27,0h-.06C26.14.4,21.42,7.86,27.81,14.25Z" transform="translate(0)"/><path class="cls-9" d="M30,17l-.31-.25-.13-.1a7.09,7.09,0,0,0-5-1.2c7.4,3.7,5.42,16.43-4.83,16a9,9,0,0,1-2.68-.52q-.3-.11-.6-.24l-.35-.17h0c1.43,1,8.49,3.36,15.87-2.65l0,0C32.25,27.37,34.69,21.29,30,17Z" transform="translate(0)"/><path class="cls-6" d="M11.33,23.74s.95-3.54,6.79-3.54a5,5,0,0,0,2.48-2.27,10.22,10.22,0,0,1-7.72-.31,7.77,7.77,0,0,0-7.56.31A5.27,5.27,0,0,0,10.19,21c-.38,3.36,1.39,7.28,5.7,9.34l.28.14A8.69,8.69,0,0,1,11.33,23.74Z" transform="translate(0)"/><path class="cls-7" d="M39.59,14.24c-.9-2.15-2.71-4.48-4.13-5.21a21.24,21.24,0,0,1,2.08,6.24v0c-2.33-5.8-6.27-8.14-9.49-13.23-.16-.25-.33-.51-.48-.78a3.74,3.74,0,0,1-.23-.43A4,4,0,0,1,27,.06.07.07,0,0,0,27,0h-.07V0a15,15,0,0,0-7.08,11.43c.24,0,.48,0,.73,0a10.41,10.41,0,0,1,9,5.26,7.11,7.11,0,0,0-5-1.2c7.39,3.7,5.41,16.43-4.84,16a9,9,0,0,1-2.67-.52c-.2-.07-.4-.16-.61-.25l-.35-.16h0l-.3-.15.28.14a8.69,8.69,0,0,1-4.84-6.73s.95-3.54,6.8-3.54a4.94,4.94,0,0,0,2.47-2.27c0-.17-3.58-1.59-5-3-.74-.73-1.1-1.09-1.41-1.35a4.91,4.91,0,0,0-.53-.4,9.54,9.54,0,0,1-.06-5A15.28,15.28,0,0,0,8.67,12h0C7.85,11,7.9,7.57,8,6.85a3.83,3.83,0,0,0-.69.37,15,15,0,0,0-2,1.72,17.83,17.83,0,0,0-1.92,2.31h0A17.45,17.45,0,0,0,.57,17.47l0,.14c0,.18-.21,1.1-.23,1.3h0A21.16,21.16,0,0,0,0,21.78v.1a20.57,20.57,0,0,0,40.83,3.48l.09-.8A21.24,21.24,0,0,0,39.59,14.24Zm-2,1v0Z" transform="translate(0)"/></svg>