<svg width="124" height="99" viewBox="0 0 124 99" fill="none" xmlns="http://www.w3.org/2000/svg">
<g clip-path="url(#clip0)">
<path d="M39.7163 78.0944C37.2357 78.7144 34.6294 78.6106 32.2057 77.7955C29.782 76.9803 27.6424 75.4879 26.0399 73.4947C24.4374 71.5015 23.4391 69.091 23.163 66.5482C22.887 64.0055 23.3448 61.437 24.4823 59.1465" fill="#E2E2E2"/>
<path d="M59.813 85.1264L22.0082 37.9936L14.6195 43.923L52.4243 91.0558L59.813 85.1264Z" fill="#78E5E1"/>
<path opacity="0.57" d="M48.6553 71.2072C56.0617 65.2639 67.4346 64.9174 70.9141 69.2431L109.728 6.63948L40.203 30.9515C43.6681 35.2984 40.8667 46.3268 33.4603 52.2701" fill="#FADB93"/>
<path d="M49.9184 81.4608L12.1135 34.328L4.72481 40.2574L42.5297 87.3902L49.9184 81.4608Z" stroke="black" stroke-width="0.41" stroke-miterlimit="10"/>
<path d="M31.2164 73.2865C28.7386 73.9032 26.1359 73.797 23.7163 72.9806C21.2967 72.1642 19.1614 70.6717 17.563 68.6797C15.9646 66.6876 14.97 64.2794 14.6968 61.7399C14.4236 59.2003 14.8833 56.6357 16.0214 54.3494" stroke="black" stroke-width="0.41" stroke-miterlimit="10" stroke-linecap="round"/>
<path d="M38.6086 67.3644C46.015 61.4211 57.3879 61.0747 60.8673 65.4003L99.6812 2.79668L30.1385 27.1121C33.6179 31.4378 30.82 42.484 23.4135 48.4273" stroke="black" stroke-width="0.41" stroke-linecap="round" stroke-linejoin="round"/>
<path d="M99.6812 2.79668L57.1228 36.9283" stroke="black" stroke-width="0.41" stroke-linecap="round" stroke-linejoin="round"/>
<path d="M46.2442 47.7918C47.3539 47.5761 48.0785 46.5014 47.8627 45.3915C47.647 44.2815 46.5725 43.5565 45.4629 43.7722C44.3533 43.9879 43.6287 45.0626 43.8444 46.1725C44.0602 47.2825 45.1346 48.0075 46.2442 47.7918Z" stroke="black" stroke-width="0.41" stroke-linecap="round" stroke-linejoin="round"/>
<path d="M38.6086 67.3644C46.015 61.4211 57.3879 61.0747 60.8673 65.4003L99.6812 2.79668L30.1385 27.1121C33.6179 31.4378 30.82 42.484 23.4135 48.4273" stroke="black" stroke-width="0.41" stroke-linecap="round" stroke-linejoin="round"/>
</g>
<defs>
<clipPath id="clip0">
<rect width="110" height="78" fill="white" transform="translate(0.590851 21.6703) rotate(-11)"/>
</clipPath>
</defs>
</svg>
