<?xml version="1.0" encoding="utf-8"?>
<!-- Generator: Adobe Illustrator 24.3.0, SVG Export Plug-In . SVG Version: 6.00 Build 0)  -->
<svg version="1.1" id="Layer_1" xmlns="http://www.w3.org/2000/svg" xmlns:xlink="http://www.w3.org/1999/xlink" x="0px" y="0px"
	 viewBox="0 0 24 24" style="enable-background:new 0 0 24 24;" xml:space="preserve">
<style type="text/css">
	.st0{fill:none;}
	.st1{fill:#63564E;}
</style>
<path class="st0" d="M0,0h24v24H0V0z"/>
<path class="st1" d="M10.2,13c0,0.7-0.6,1.2-1.2,1.2S7.8,13.7,7.8,13s0.6-1.2,1.2-1.2S10.2,12.3,10.2,13z M15,11.7
	c-0.7,0-1.2,0.6-1.2,1.2s0.6,1.2,1.2,1.2s1.2-0.6,1.2-1.2S15.7,11.7,15,11.7z M22,12c0,5.5-4.5,10-10,10S2,17.5,2,12S6.5,2,12,2
	S22,6.5,22,12z M10.7,4.1C12.1,6.4,14.6,8,17.5,8c0.5,0,0.9-0.1,1.3-0.1C17.4,5.6,14.9,4,12,4C11.5,4,11.1,4,10.7,4.1z M4.4,9.5
	c1.7-1,3-2.6,3.7-4.4C6.4,6,5.1,7.6,4.4,9.5z M20,12c0-0.8-0.1-1.5-0.3-2.2C19,9.9,18.2,10,17.5,10c-3.1,0-5.9-1.4-7.8-3.7
	C8.7,8.9,6.6,10.9,4,11.9c0,0,0,0.1,0,0.1c0,4.4,3.6,8,8,8S20,16.4,20,12z"/>
</svg>
