<?xml version="1.0" encoding="utf-8"?>
<!-- Generator: Adobe Illustrator 24.3.0, SVG Export Plug-In . SVG Version: 6.00 Build 0)  -->
<svg version="1.1" id="Layer_1" xmlns="http://www.w3.org/2000/svg" xmlns:xlink="http://www.w3.org/1999/xlink" x="0px" y="0px"
	 viewBox="0 0 24 24" style="enable-background:new 0 0 24 24;" xml:space="preserve">
<style type="text/css">
	.st0{fill:none;}
	.st1{fill:#63564E;}
</style>
<path class="st0" d="M0,0h24v24H0V0z"/>
<path class="st1" d="M17.6,3.6C17.2,3.2,16.7,3,16.2,3H5C3.9,3,3,3.9,3,5v14c0,1.1,0.9,2,2,2h14c1.1,0,2-0.9,2-2V7.8
	c0-0.5-0.2-1-0.6-1.4C20.4,6.4,17.6,3.6,17.6,3.6z M12,19c-1.7,0-3-1.3-3-3s1.3-3,3-3s3,1.3,3,3S13.7,19,12,19z M13,9H7
	C5.9,9,5,8.1,5,7s0.9-2,2-2h6c1.1,0,2,0.9,2,2S14.1,9,13,9z"/>
</svg>
