<svg id="Layer_1" data-name="Layer 1" xmlns="http://www.w3.org/2000/svg" viewBox="0 0 468.89 531.34"><defs><style>.cls-1{fill:#29150d;}</style></defs><path class="cls-1" d="M229.78,243.8c-18.66,12-28.68,35.34-21,57.54-26.91,8.23-40.1,26.1-38.76,54.51-7.73-28.28-5-55.92,5.87-83.32-9.93,2.93-23.32,27.84-28.32,51.18-4.25,19.78-.2,39.39,3.26,59.15-1.74-3.56-3.61-7.07-5.19-10.7a109.33,109.33,0,0,1-4.58-11.69c-17.28-57.12-9.19-109.7,30.39-155.29,25.18-29,58-43.24,96.79-40.9,28.54,1.73,52.94,13.55,73.82,32.88a3.71,3.71,0,0,1,.71,1c-7.73,2.48-15.89,4-23,7.57-22.1,11.3-32,30.62-33.32,54.74-.86,15.64,2.85,30.1,12.57,42.67,13.41,17.26,31.58,22.34,52.41,20.54,13.64-1.18,24.7-7.39,33.35-18,.83-1,1.75-2,3.37-3.74,1.91,8.58,3.8,16.37,5.35,24.22,5.67,28.76,21.67,50.72,44.62,68.15,1,.75,1.91,1.63,3.13,2.68-3.5,3.29-7,1.76-10.12.8-20.31-6.15-35.72-18.85-47.62-36.11-2-2.85-3.63-5.92-5.84-9.56H348.06c-8,0-16-.3-24,.12-4.79.24-7.56-1.46-10-5.51-12.47-21.05-31-34.69-54.12-41.66-8.84-2.66-18.25-3.63-27.48-4.68-4.68-.53-7.18-2.49-8.72-6.68-6.14-16.7-3.67-32.38,5.32-47.36.32-.57.62-1.15.89-1.75C230.06,244.52,229.94,244.34,229.78,243.8Z"/><path class="cls-1" d="M149.12,161.51c.44-12.34-8.33-19.26-24.89-19.69C172.18,106.64,191,57.31,195,0a10.59,10.59,0,0,1,1.59,2c19.73,51.75,16.72,101.9-11.85,149.63a117.79,117.79,0,0,1-45.58,43.86c-15.65,8.41-31.86,15.9-47,25.13C71.88,233,53.66,248.23,40.33,268.09c-19.43,29-19.79,60-8.47,92.25C46.43,402,71.66,436.11,104.3,465.2c.47.42.85.94,2.3,2.55-2.44-1.14-3.6-1.57-4.65-2.19-34.89-20.76-64.38-47.17-82.55-84C-1,340.14-5.6,296.63,7,251.88c8.14-28.93,22.88-54,46.75-72.76,26.82-21.12,56.83-28.2,90.15-18.87C145.59,160.71,147.31,161.07,149.12,161.51Z"/><path class="cls-1" d="M306.43,265.66c.55-18.73,2.61-34,12.92-46.73,7.44-9.18,17.51-12.92,29.06-12.84,1.5,0,3.39,1.28,4.44,2.52,18.68,22.06,29.54,47.64,33.83,76.1.53,3.52,1.81,8.32.12,10.51-4.49,5.82-9.74,11.59-15.89,15.5-18.62,11.83-55,6.42-62.44-29.26A150.34,150.34,0,0,1,306.43,265.66Zm43.42-18a14.77,14.77,0,1,0,15,14.54h0a1,1,0,0,1,0-.25,14.68,14.68,0,0,0-15-14.31Z"/><path class="cls-1" d="M421.7,438.53c-14.9-3.25-29.87-6.19-44.68-9.81C349.66,422,326.64,407,304.73,390c-17.47-13.5-36.12-24.35-58.68-26.07-15.37-1.17-29.87,1.71-40,14.54-8.72,11-9.08,23.59-4.36,36.46,5.89,16.07,17,28.31,29,40,29.28,28.55,62.51,51.8,97.08,73.3,1,.6,1.87,1.28,2.8,1.93l-.59,1.18c-6.75-3.19-13.74-6-20.19-9.65-28.75-16.51-57.3-33.41-82.94-54.6-15.31-12.67-29.59-26.55-39.21-44.26-7.16-13.16-10.87-27.29-6.56-42.25,4.25-14.74,14.44-24.33,28.29-30.25,17.64-7.55,35.32-7.57,53.52-1.41,21.43,7.25,39.4,19.91,56.07,34.53,28.08,24.64,59.92,41.88,96.14,51,2.36.59,4.72,1.22,7.08,1.83Z"/><path class="cls-1" d="M283.75,28.26c6.54,7.66,13.67,14.9,19.5,23.07,18.68,26.12,26.39,55,19.41,86.87-2.86,13-2.11,13-13.66,6.58-15-8.41-31.49-11.43-48.67-10.53-1.75.09-3.52,0-6.28,0,22.44-32,29.88-67.35,28.09-105.07Z"/><path class="cls-1" d="M449.25,397.37a33.65,33.65,0,0,1,16.57,10.74,11.81,11.81,0,0,1,1.91,13.06c-3.5,7.77-21,17.9-28.75,17.34Z"/><path class="cls-1" d="M356.43,199.73c5.07,1.91,10.24,3.58,15.17,5.78,7.14,3.18,8.66,2.81,12.31-3.8.59-1.05,1.77-1.78,3.82-3.77.9,14.33,1.7,27,2.5,39.7l-1.56.7c-1-1.39-2.42-2.64-3-4.2-4.41-11.9-11.38-21.3-23.61-26.27-2.73-1.12-4.81-3.82-7.2-5.79Z"/><path class="cls-1" d="M354.59,440.21c24.48,7.54,48.26,7.93,72.21,6.44C414.3,457.92,371.43,454.58,354.59,440.21Z"/></svg>