<?xml version="1.0" encoding="utf-8"?>
<!-- Generator: Adobe Illustrator 24.3.0, SVG Export Plug-In . SVG Version: 6.00 Build 0)  -->
<svg version="1.1" id="Layer_1" xmlns="http://www.w3.org/2000/svg" xmlns:xlink="http://www.w3.org/1999/xlink" x="0px" y="0px"
	 viewBox="0 0 24 24" style="enable-background:new 0 0 24 24;" xml:space="preserve">
<style type="text/css">
	.st0{fill:none;}
	.st1{fill:#63564E;}
</style>
<g>
	<rect y="0" class="st0" width="24" height="24"/>
	<path class="st1" d="M19,3H5C3.9,3,3,3.9,3,5v14c0,1.1,0.9,2,2,2h14c1.1,0,2-0.9,2-2V5C21,3.9,20.1,3,19,3z M19,19H5V7h14V19z
		 M16,12H8c-0.6,0-1-0.4-1-1l0,0c0-0.6,0.4-1,1-1h8c0.5,0,1,0.4,1,1l0,0C17,11.5,16.5,12,16,12z M12,16H8c-0.6,0-1-0.4-1-1l0,0
		c0-0.6,0.4-1,1-1h4c0.6,0,1,0.4,1,1l0,0C13,15.5,12.6,16,12,16z"/>
</g>
</svg>
