<svg id="Capa_1" data-name="Capa 1" xmlns="http://www.w3.org/2000/svg" viewBox="0 0 512 427.64"><defs><style>.cls-1{fill:#63564e;}</style></defs><path class="cls-1" d="M501.9,62.5c-2.3-.8-57.9-20.3-125.5-20.3-56.7,0-105,13.7-120.4,18.6-15.4-4.9-63.7-18.6-120.4-18.6C68.1,42.2,12.5,61.6,10.1,62.5A15.22,15.22,0,0,0,0,76.8V388a15.21,15.21,0,0,0,6.4,12.4c7.4,5.3,13.8,1.8,21-.4v54.2a15.18,15.18,0,0,0,18.1,14.9L206,438.4c7.1,15.5,23.3,27.9,41.1,30.4,5.6,2.9,42.3,1.8,58.1-31.1,178.6,33.3,168.1,31.7,170.7,31.7a15.19,15.19,0,0,0,15.2-15.2V402.1C502.6,406,512,397.7,512,388V76.8A15.22,15.22,0,0,0,501.9,62.5Zm-301,345.9-143,27.4V392.3c51.1-10.8,95.6-10.9,143-2.4v18.5ZM30.4,367.5V87.9c69.3-20.1,139.3-20.6,210.4,0V367.4C171.8,349.2,102.8,348.2,30.4,367.5Zm249.2,51a26.32,26.32,0,0,1-2.8,8c-11.8,20.6-41.8,14.2-45.5-8-.1-.7,0-5.6,0-22,20,5.2,22.6,8.3,29.8,5.8.1,0,6.1-2.2,18.5-5.5Zm181.1,17.4L310,407.7V390.1c50.1-9.1,97.3-8.5,150.7,3.7v42.1Zm20.9-68.4c-73.1-19.5-142.5-18.2-210.4,0V87.9c72.2-21,142-19.8,210.4,0Z" transform="translate(0 -42.2)"/><path class="cls-1" d="M431.3,121.3c-58.1-20.9-107-.8-109.4-.2a15.18,15.18,0,1,0,9.3,28.9c56.5-18.1,85.7.7,94.9.7a15.24,15.24,0,0,0,14.3-10.1A15.06,15.06,0,0,0,431.3,121.3Z" transform="translate(0 -42.2)"/><path class="cls-1" d="M431.3,204.5c-59.1-21.2-106.5-.6-109.4-.2a15.18,15.18,0,1,0,9.3,28.9c2.4-.4,41.7-17.4,89.8-.2a15.15,15.15,0,1,0,10.3-28.5Z" transform="translate(0 -42.2)"/><path class="cls-1" d="M431.3,287.6c-59.1-21.2-106.5-.6-109.4-.2a15.18,15.18,0,1,0,9.3,28.9c2.4-.4,41.6-17.5,89.8-.2a15.34,15.34,0,0,0,19.5-9.2A15.12,15.12,0,0,0,431.3,287.6Z" transform="translate(0 -42.2)"/><path class="cls-1" d="M190.5,121.3a163.45,163.45,0,0,0-104.4-1.8c-2.1,1.1-11.6,1.7-14.8,11.3a15.25,15.25,0,0,0,19.1,19.3c2.4-.4,41.6-17.5,89.8-.2a15.2,15.2,0,0,0,10.3-28.6Z" transform="translate(0 -42.2)"/><path class="cls-1" d="M190.5,204.5c-59.1-21.2-106.5-.6-109.4-.2a15.18,15.18,0,1,0,9.3,28.9c2.4-.4,41.7-17.4,89.8-.2a15.15,15.15,0,1,0,10.3-28.5Z" transform="translate(0 -42.2)"/><path class="cls-1" d="M190.5,287.6c-59-21.2-106.5-.6-109.3-.2a15.18,15.18,0,1,0,9.3,28.9c2.5-.4,41.6-17.5,89.8-.2a15.14,15.14,0,1,0,10.2-28.5Z" transform="translate(0 -42.2)"/></svg>