<svg id="Capa_1" data-name="Capa 1" xmlns="http://www.w3.org/2000/svg" viewBox="0 0 512 427.6"><defs><style>.cls-1{fill:#f6f4e6;}</style></defs><path class="cls-1" d="M501.87,62.48c-2.33-.83-57.93-20.28-125.48-20.28-56.68,0-105,13.7-120.39,18.59C240.57,55.9,192.29,42.2,135.61,42.2,68.06,42.2,12.46,61.65,10.13,62.48A15.2,15.2,0,0,0,0,76.81V388A15.21,15.21,0,0,0,6.45,400.4c7.45,5.26,13.8,1.8,21-.37v54.16a15.19,15.19,0,0,0,18.06,14.93L206,438.4c7.06,15.51,23.31,27.93,41.1,30.37,5.62,2.88,42.29,1.77,58.09-31.07C483.78,471,473.27,469.4,475.9,469.4a15.22,15.22,0,0,0,15.21-15.21V402.12C502.59,406.06,512,397.74,512,388V76.81A15.2,15.2,0,0,0,501.87,62.48Zm-301,345.94-143,27.38V392.3c51.08-10.8,95.65-10.94,143-2.44v18.56ZM30.42,367.53V88C99.74,67.85,169.74,67.4,240.79,88V367.53C171.8,349.19,102.75,348.2,30.42,367.53Zm249.15,51a25.05,25.05,0,0,1-2.8,8c-11.78,20.64-41.82,14.21-45.45-8-.07-.69,0-5.62,0-22,20,5.21,22.58,8.34,29.83,5.78.1,0,6.14-2.24,18.46-5.48ZM460.7,435.87,310,407.66V390.07c50.11-9.15,97.33-8.54,150.71,3.68v42.12Zm20.88-68.34c-73.14-19.48-142.45-18.19-210.37,0V88c72.2-21,142-19.77,210.37,0Z" transform="translate(0 -42.2)"/><path class="cls-1" d="M431.31,121.34A164.23,164.23,0,0,0,322,121.17a15.21,15.21,0,0,0,9.31,29c56.49-18.1,85.72.74,94.91.74a15.21,15.21,0,0,0,5.14-29.53Z" transform="translate(0 -42.2)"/><path class="cls-1" d="M431.32,204.47c-59.06-21.21-106.53-.61-109.36-.17a15.21,15.21,0,0,0,9.3,29c2.41-.38,41.66-17.44,89.78-.17a15.21,15.21,0,1,0,10.28-28.62Z" transform="translate(0 -42.2)"/><path class="cls-1" d="M431.32,287.59c-59.06-21.2-106.48-.61-109.36-.16a15.21,15.21,0,0,0,9.3,29c2.42-.38,41.6-17.47,89.78-.17a15.21,15.21,0,0,0,10.28-28.63Z" transform="translate(0 -42.2)"/><path class="cls-1" d="M190.53,121.34a163.07,163.07,0,0,0-104.36-1.77c-2.14,1.1-11.55,1.67-14.78,11.27a15.23,15.23,0,0,0,19.09,19.29c2.44-.39,41.59-17.47,89.77-.16a15.21,15.21,0,0,0,10.28-28.63Z" transform="translate(0 -42.2)"/><path class="cls-1" d="M190.53,204.47c-59.06-21.21-106.53-.61-109.36-.17a15.21,15.21,0,0,0,9.3,29c2.41-.38,41.67-17.44,89.78-.17a15.21,15.21,0,1,0,10.28-28.62Z" transform="translate(0 -42.2)"/><path class="cls-1" d="M190.53,287.59c-59.06-21.2-106.48-.61-109.36-.16a15.21,15.21,0,0,0,9.3,29c2.47-.39,41.6-17.47,89.78-.17a15.21,15.21,0,0,0,10.28-28.63Z" transform="translate(0 -42.2)"/></svg>