<svg width="606" height="364" viewBox="0 0 606 364" fill="none" xmlns="http://www.w3.org/2000/svg">
<g clip-path="url(#clip0)">
<path d="M300.329 265.646C269.014 265.646 243.628 260.041 243.628 253.126C243.628 246.211 269.014 240.605 300.329 240.605C331.644 240.605 357.03 246.211 357.03 253.126C357.03 260.041 331.644 265.646 300.329 265.646Z" fill="#010101"/>
<path d="M300.329 253.126L332.19 352.676" stroke="#010101" stroke-width="10" stroke-miterlimit="10" stroke-linecap="round"/>
<path d="M300.329 253.126L268.483 352.676" stroke="#010101" stroke-width="10" stroke-miterlimit="10" stroke-linecap="round"/>
<path d="M321.73 319.998L286.213 297.26" stroke="#010101" stroke-width="4" stroke-miterlimit="10" stroke-linecap="round"/>
<path d="M314.592 297.26L279.082 319.998" stroke="#010101" stroke-width="4" stroke-miterlimit="10" stroke-linecap="round"/>
<path d="M179.783 345.226C179.783 347.237 180.883 359.945 178.689 361.12C176.496 362.296 152.337 363.005 151.23 361.816C150.123 360.627 149.475 358.171 150.436 357.469C151.397 356.766 160.757 354.763 162.024 353.817C163.292 352.871 165.047 347.87 164.406 345.22" fill="#1F161E"/>
<path d="M252.02 179.103L238.398 173.886C238.983 147.308 244.784 87.9204 253.023 79.0867C254.952 76.9999 293.247 73.4107 300.086 73.4107C340.853 73.4107 352.935 78.398 356.013 81.6881C365.547 91.8782 368.549 139.156 368.549 155.704C368.549 172.252 324.905 180.835 324.905 180.835L273.755 184.605C273.755 184.605 262.522 185.836 252.821 186.448C252.591 183.262 252.02 179.103 252.02 179.103Z" fill="#DA5B5E"/>
<path d="M211.497 194.517C207.778 193.334 170.771 186.866 162.749 195.365C154.726 203.865 129.321 325.73 129.321 328.54H149.754L177.352 264.985" fill="#1F161E"/>
<path d="M346.243 183.68C347.169 188.653 352.747 193.988 352.747 221.081C352.747 258.551 324.111 259.337 313.819 259.337C281.784 259.337 229.937 249.14 226.441 247.276C224.115 251.449 181.322 345.025 181.134 347.111H161.425C161.425 347.111 173.64 207.162 195.667 191.261C202.826 186.156 329.815 180.654 346.243 183.68Z" fill="#2F5366"/>
<path d="M230.843 156.295C236.024 156.295 240.286 157.61 251.999 160.072L252.619 184.076C241.477 179.284 238.921 172.62 235.703 172.62C227.653 172.62 223.454 177.065 218.697 177.065C215.383 177.065 209.421 174.283 209.421 170.485C209.442 162.548 224.464 156.295 230.843 156.295Z" fill="#F8CDBB"/>
<path d="M148.542 326.857C148.542 328.881 149.642 341.575 147.449 342.757C145.255 343.94 121.097 344.635 119.99 343.453C118.882 342.27 118.242 339.801 119.196 339.098C120.15 338.396 129.516 336.386 130.784 335.454C132.051 334.522 133.806 329.5 133.165 326.843" fill="#1F161E"/>
<path d="M292.899 79.0518C292.899 82.2654 310.26 82.3558 310.26 79.0518V52.9957H292.899V79.0518Z" fill="#F8CDBB"/>
<path d="M298.553 61.5581C300.141 61.5581 310.26 66.3436 310.26 69.0216V54.9225C307.739 54.9225 298.553 61.5581 298.553 61.5581Z" fill="#1F161E"/>
<path d="M295.204 62.7059C283.592 62.7059 274.18 52.6221 274.18 40.1832C274.18 27.7443 283.592 17.6606 295.204 17.6606C306.815 17.6606 316.228 27.7443 316.228 40.1832C316.228 52.6221 306.815 62.7059 295.204 62.7059Z" fill="#F8CDBB"/>
<path d="M273.49 22.5227C276.095 26.9535 281.54 28.9846 287.418 28.9846C292.446 28.9846 299.758 27.4194 304.974 30.5982C307.76 32.3023 311.012 36.1628 311.667 43.9115C311.667 45.2401 313.06 50.3803 313.06 52.0357C313.06 53.1765 314.25 53.9138 316.235 53.9138C317.259 53.9138 319.271 52.1331 319.271 49.4204C319.271 46.2834 318.115 45.1705 318.115 42.5064C318.115 39.8424 321.207 37.2549 321.207 29.861C321.207 19.2118 314.863 12.6456 310.371 12.6456C306.284 12.6456 304.988 13.6679 304.473 14.0992C304.473 4.42379 292.571 -6.10352e-05 287.808 -6.10352e-05C282.418 -6.10352e-05 279.876 2.3788 279.876 5.39062C279.876 10.2109 282.007 14.2871 283.1 15.2052C280.705 12.8643 277.489 11.5513 274.138 11.5465C267.947 11.5465 265.871 15.8939 265.871 18.8709C265.871 25.3467 273.121 31.3425 275.823 31.3425C276.493 29.8047 277.29 28.3251 278.205 26.9187" fill="#1F161E"/>
<path d="M311.026 47.9528C308.549 47.9528 306.541 45.804 306.541 43.1533C306.541 40.5027 308.549 38.3539 311.026 38.3539C313.503 38.3539 315.511 40.5027 315.511 43.1533C315.511 45.804 313.503 47.9528 311.026 47.9528Z" fill="#F8CDBB"/>
<path d="M273.964 44.3149C272.044 44.3149 270.489 43.4461 270.489 42.3743C270.489 41.3025 272.044 40.4336 273.964 40.4336C275.883 40.4336 277.439 41.3025 277.439 42.3743C277.439 43.4461 275.883 44.3149 273.964 44.3149Z" fill="#F69EA0"/>
<path d="M295.817 44.3149C293.897 44.3149 292.342 43.4461 292.342 42.3743C292.342 41.3025 293.897 40.4336 295.817 40.4336C297.736 40.4336 299.292 41.3025 299.292 42.3743C299.292 43.4461 297.736 44.3149 295.817 44.3149Z" fill="#F69EA0"/>
<path d="M282.453 38.3539C281.798 39.3416 278.483 43.5149 281.993 45.2052" stroke="#1F161E" stroke-miterlimit="10" stroke-linecap="round"/>
<path d="M288.992 50.0742C290.037 50.0742 291.645 48.6832 292.474 47.4312" stroke="#1F161E" stroke-miterlimit="10" stroke-linecap="round"/>
<path d="M261.268 110.568C259.68 114.192 252.02 149.033 252.02 160.072" stroke="#1F161E" stroke-miterlimit="10" stroke-linecap="round"/>
<path d="M368.528 152.915C368.528 192.089 368.193 203.455 353.506 203.455C319.675 203.455 268.546 173.705 259.409 173.705C251.366 173.705 247.159 178.15 242.396 178.15C239.088 178.15 233.12 175.368 233.12 171.57C233.12 163.633 248.141 157.373 254.541 157.373C268.957 157.373 326.5 172.259 327.893 172.259C329.286 172.259 331.66 171.605 331.66 169.073C331.66 164.475 328.875 153.854 328.492 152.922L368.528 152.915Z" fill="#F8CDBB"/>
<path d="M320.044 118.72C321.012 121.704 328.561 152.546 329.439 156.281" stroke="#1F161E" stroke-miterlimit="10" stroke-linecap="round"/>
<path d="M388.389 169.163H477.514V182.678H388.389V169.163Z" fill="#E2E2E2"/>
<path d="M461.093 171.834H474.29V180.153H461.093V171.834Z" fill="#CCCCCC"/>
<path d="M469.011 156.351H402.157C401.393 156.35 400.636 156.499 399.929 156.791C399.223 157.082 398.581 157.51 398.041 158.049C397.5 158.589 397.071 159.229 396.778 159.935C396.486 160.64 396.335 161.396 396.335 162.159V162.277C396.335 163.04 396.486 163.796 396.778 164.501C397.071 165.206 397.5 165.847 398.041 166.386C398.581 166.926 399.223 167.353 399.929 167.645C400.636 167.936 401.393 168.086 402.157 168.085H469.011V156.351Z" fill="#E2E2E2"/>
<path d="M392.707 140.596H464.617V146.133H392.707V140.596Z" fill="#CCCCCC"/>
<path d="M391.398 146.147H470.188V153.541H391.398V146.147Z" fill="#E2E2E2"/>
<path d="M397.818 144.881C396.98 144.881 396.3 144.202 396.3 143.364C396.3 142.527 396.98 141.848 397.818 141.848C398.657 141.848 399.336 142.527 399.336 143.364C399.336 144.202 398.657 144.881 397.818 144.881Z" fill="#E2E2E2"/>
<path d="M459.484 149.847H402.554" stroke="#010101" stroke-width="2" stroke-miterlimit="10" stroke-linecap="round"/>
<path d="M460.258 141.869V144.86" stroke="#010101" stroke-width="2" stroke-miterlimit="10" stroke-linecap="round"/>
<path d="M458.001 141.869V144.86" stroke="#010101" stroke-width="2" stroke-miterlimit="10" stroke-linecap="round"/>
<path d="M455.745 141.869V144.86" stroke="#010101" stroke-width="2" stroke-miterlimit="10" stroke-linecap="round"/>
<path d="M467.194 147.26H468.983V152.435H467.194V147.26Z" fill="#CCCCCC"/>
<path d="M464.624 147.26H466.414V152.435H464.624V147.26Z" fill="#CCCCCC"/>
<path d="M472.751 156.351H402.679C399.197 156.351 396.293 158.994 396.293 162.215C396.293 165.442 399.169 168.078 402.679 168.078H472.751" stroke="#CCCCCC" stroke-width="10" stroke-miterlimit="10"/>
<path d="M419.142 173.239L420.967 170.074L422.798 173.239V160.656H419.142V173.239Z" fill="#A68FC3"/>
<path d="M456.97 175.994H396.175" stroke="#CCCCCC" stroke-width="19.81" stroke-miterlimit="10"/>
<path d="M325.455 154.215H320.797C318.596 154.215 316.813 156.253 316.813 158.764V168.273C316.813 170.791 318.596 172.829 320.797 172.829H325.455C327.656 172.829 329.439 170.791 329.439 168.273V158.764C329.439 156.253 327.642 154.215 325.455 154.215Z" stroke="#A48DC2" stroke-width="10" stroke-miterlimit="10"/>
<path d="M323.547 149.868V174.623C323.547 178.421 320.838 181.503 317.509 181.517H299.598C296.269 181.517 293.574 178.421 293.56 174.623V149.868H323.547Z" fill="#FBD895"/>
<path d="M325.685 147.858H291.429C291.179 147.876 290.945 147.992 290.779 148.18C290.614 148.369 290.53 148.616 290.545 148.866C290.53 149.116 290.614 149.362 290.78 149.55C290.946 149.737 291.179 149.852 291.429 149.868H325.692C325.941 149.85 326.173 149.735 326.337 149.548C326.501 149.36 326.585 149.115 326.57 148.866C326.585 148.616 326.501 148.369 326.335 148.18C326.169 147.992 325.936 147.876 325.685 147.858Z" fill="#1F171E"/>
<path d="M308.547 171.473C305.751 171.473 303.484 168.885 303.484 165.692C303.484 162.5 305.751 159.912 308.547 159.912C311.343 159.912 313.61 162.5 313.61 165.692C313.61 168.885 311.343 171.473 308.547 171.473Z" fill="white"/>
<path d="M4.17148 363.673C7.15903 364.285 10.2093 362.894 10.9962 360.571L66.8683 194.962C67.6552 192.639 65.8724 190.253 62.8848 189.641C59.9042 189.029 56.8471 190.42 56.0602 192.75L0.188103 358.359C-0.598831 360.696 1.18393 363.075 4.17148 363.673Z" fill="#969696"/>
<path d="M71.4157 189.662C68.4282 190.274 66.6454 192.653 67.4323 194.976L123.305 360.585C124.084 362.915 127.142 364.306 130.129 363.694C133.11 363.082 134.893 360.703 134.113 358.373L78.2405 192.764C77.4536 190.476 74.3963 189.084 71.4157 189.662Z" fill="#969696"/>
<path d="M148.5 189.669C145.513 190.281 143.73 192.66 144.517 194.983L200.389 360.599C201.176 362.922 204.233 364.313 207.214 363.701C210.201 363.089 211.984 360.71 211.197 358.38L155.325 192.771C154.538 190.476 151.453 189.084 148.5 189.669Z" fill="#D8D9D8"/>
<path d="M82.2309 363.673C85.2185 364.285 88.2757 362.894 89.0557 360.571L144.928 194.955C145.715 192.632 143.932 190.253 140.944 189.641C137.964 189.029 134.907 190.42 134.12 192.743L78.2475 358.352C77.4676 360.703 79.2503 363.082 82.2309 363.673Z" fill="#D8D9D8"/>
<path d="M462.897 189.314C459.909 189.912 458.106 192.291 458.879 194.621L513.811 360.724C514.584 363.054 517.634 364.459 520.628 363.861C523.623 363.256 525.427 360.877 524.654 358.547L469.708 192.444C468.949 190.114 465.891 188.709 462.897 189.314Z" fill="#969696"/>
<path d="M397.456 363.089C400.451 363.687 403.501 362.289 404.274 359.952L459.213 193.849C459.986 191.519 458.182 189.14 455.188 188.542C452.193 187.937 449.143 189.342 448.37 191.672L393.438 357.775C392.665 360.112 394.496 362.484 397.456 363.089Z" fill="#969696"/>
<path d="M573.388 181.475H32.9814C30.2516 181.475 28.037 183.2 28.037 185.328V190.51C28.037 192.639 30.2516 194.364 32.9814 194.364H573.388C576.117 194.364 578.332 192.639 578.332 190.51V185.328C578.346 183.2 576.117 181.475 573.388 181.475Z" fill="#D8D9D8"/>
<path d="M543.122 189.676C540.134 190.288 538.352 192.667 539.139 194.99L595.011 360.606C595.798 362.929 598.848 364.32 601.835 363.708C604.816 363.096 606.599 360.717 605.819 358.387L549.947 192.778C549.16 190.476 546.103 189.084 543.122 189.676Z" fill="#D8D9D8"/>
<path d="M476.839 363.673C479.826 364.285 482.876 362.894 483.663 360.571L539.536 194.962C540.323 192.632 538.54 190.253 535.552 189.641C532.572 189.029 529.514 190.42 528.727 192.743L472.855 358.352C472.068 360.703 473.851 363.082 476.839 363.673Z" fill="#D8D9D8"/>
<path d="M84.717 181.433H206.197L184.184 105.88C183.633 104.058 182.506 102.464 180.972 101.335C179.438 100.207 177.579 99.6047 175.674 99.6198H72.6066C71.2535 99.5991 69.9142 99.8941 68.6953 100.481C67.4764 101.068 66.4115 101.932 65.5852 103.002C64.759 104.072 64.1941 105.321 63.9357 106.648C63.6773 107.974 63.7324 109.343 64.0966 110.645L84.717 181.433Z" fill="#010101"/>
<path d="M130.54 147.955C126.436 147.955 123.109 144.632 123.109 140.533C123.109 136.435 126.436 133.112 130.54 133.112C134.644 133.112 137.971 136.435 137.971 140.533C137.971 144.632 134.644 147.955 130.54 147.955Z" fill="white"/>
<path d="M191.761 176.168H276.993V181.482H191.761V176.168Z" fill="#010101"/>
</g>
<defs>
<clipPath id="clip0">
<rect width="606" height="364" fill="white" transform="matrix(-1 0 0 1 606 0)"/>
</clipPath>
</defs>
</svg>
