<?xml version="1.0" encoding="utf-8"?>
<!-- Generator: Adobe Illustrator 24.3.0, SVG Export Plug-In . SVG Version: 6.00 Build 0)  -->
<svg version="1.1" id="Capa_1" xmlns="http://www.w3.org/2000/svg" xmlns:xlink="http://www.w3.org/1999/xlink" x="0px" y="0px"
	 viewBox="0 0 485.8 485.8" style="enable-background:new 0 0 485.8 485.8;" xml:space="preserve">
<style type="text/css">
	.st0{fill:#D95B5E;}
</style>
<g>
	<path class="st0" d="M476.1,354L305.9,59.2c-27.8-48.7-98.1-48.7-125.8,0L9.8,354c-27.8,48.7,6.8,109.2,62.9,109.2h339.9
		C468.7,463.2,503.9,402.1,476.1,354z M242.9,397.8c-14.8,0-27.1-12.3-27.1-27.1s12.3-27.1,27.1-27.1c14.8,0,27.1,12.3,26.5,27.8
		C270.1,385.5,257.1,397.8,242.9,397.8z M267.6,222.6c-1.2,21-2.5,41.9-3.7,62.9c-0.6,6.8-0.6,13-0.6,19.7
		c-0.6,11.1-9.3,19.7-20.4,19.7s-19.7-8-20.4-19.1c-1.8-32.7-3.7-64.8-5.5-97.5c-0.6-8.6-1.2-17.3-1.9-25.9c0-14.2,8-25.9,21-29.6
		c13-3.1,25.9,3.1,31.5,15.4c1.9,4.3,2.5,8.6,2.5,13.6C269.5,195.5,268.2,209.1,267.6,222.6z"/>
</g>
</svg>
